<?xml version="1.0" encoding="utf-8"?>
<!-- Generator: Adobe Illustrator 25.4.0, SVG Export Plug-In . SVG Version: 6.00 Build 0)  -->
<svg version="1.1" id="Calque_1"
	xmlns="http://www.w3.org/2000/svg"
	xmlns:xlink="http://www.w3.org/1999/xlink" x="0px" y="0px" viewBox="0 0 400 400" style="enable-background:new 0 0 400 400;" xml:space="preserve">
	<style type="text/css">
	.st0{fill:#FFFFFF;}
	</style>
	<g>
		<path class="st0" d="M200.6,243.3h-34.6c-6.7,0-12.5,5.4-12.5,12.5V277c0,6.7,5.4,12.5,12.5,12.5h34.6c6.7,0,12.5-5.4,12.5-12.5
		v-21.2C213.1,249.1,207.3,243.3,200.6,243.3z"/>
		<path class="st0" d="M111.5,243.3H77c-6.7,0-12.5,5.4-12.5,12.5V277c0,6.7,5.4,12.5,12.5,12.5h34.6c6.7,0,12.5-5.4,12.5-12.5v-21.2
		C124,249.1,118.2,243.3,111.5,243.3z"/>
		<path class="st0" d="M200.6,165.4h-34.6c-6.7,0-12.5,5.4-12.5,12.5v21.2c0,6.7,5.4,12.5,12.5,12.5h34.6c6.7,0,12.5-5.4,12.5-12.5
		v-21.2C213.1,171.3,207.3,165.4,200.6,165.4z"/>
		<path class="st0" d="M111.5,165.4H77c-6.7,0-12.5,5.4-12.5,12.5v21.2c0,6.7,5.4,12.5,12.5,12.5h34.6c6.7,0,12.5-5.4,12.5-12.5
		v-21.2C124,171.3,118.2,165.4,111.5,165.4z"/>
		<path class="st0" d="M289.8,165.4h-34.6c-6.7,0-12.5,5.4-12.5,12.5v21.2c0,6.7,5.4,12.5,12.5,12.5h34.6c6.7,0,12.5-5.4,12.5-12.5
		v-21.2C302.3,171.3,296.4,165.4,289.8,165.4z"/>
		<path class="st0" d="M364.3,247.1V81.7c0-10.8-4.2-20.4-10.8-27.9v-0.4h-0.4c-7.9-8.7-19.2-14.2-31.6-14.2h-31.2V20.5
		c0-7.9-6.2-14.2-14.2-14.2h-21.2c-7.9,0-14.2,6.2-14.2,14.2v18.7H125.7V20.5c0-7.9-6.2-14.2-14.2-14.2H90.3
		c-7.9,0-14.2,6.2-14.2,14.2v18.7H44.9c-12.5,0-23.7,5.4-31.6,14.2h0v0.4C6.6,61.3,2.4,70.9,2.4,81.7v227
		c0,23.3,19.2,42.5,42.5,42.5h199.5c13.7,25.8,40.8,43.3,72,43.3c45,0,81.6-36.6,81.6-81.6C398,285.8,384.7,261.6,364.3,247.1z
		 M234.8,312.9c0,3.3,0.4,6.7,0.8,10H44.9c-7.9,0-14.2-6.2-14.2-14.2V135.4h304.8v98.3c-6.2-1.7-12.5-2.5-19.2-2.5
		C271.4,231.2,234.8,267.9,234.8,312.9z M350.1,304.5l-33.7,36.2c-2.1,2.1-5,3.3-7.9,3.3s-5.8-1.2-7.9-3.3l-20-21.7
		c-4.2-4.2-3.7-10.8,0.4-15c4.2-4.2,10.8-3.7,15,0.4l12.5,13.3l25.8-27.9c4.2-4.2,10.8-4.6,15-0.4
		C353.9,293.7,354.3,300.4,350.1,304.5z"/>
	</g>
</svg>
