<?xml version="1.0" encoding="utf-8"?>
<!-- Generator: Adobe Illustrator 25.4.0, SVG Export Plug-In . SVG Version: 6.00 Build 0)  -->
<svg version="1.1" id="Calque_1" xmlns="http://www.w3.org/2000/svg" xmlns:xlink="http://www.w3.org/1999/xlink" x="0px" y="0px"
	 viewBox="0 0 400 400" style="enable-background:new 0 0 400 400;" xml:space="preserve">
<style type="text/css">
	.st0{display:none;fill:#E94649;}
	.st1{display:none;fill:#FFFFFF;}
	.st2{fill:#E94649;}
</style>
<circle class="st0" cx="194.7" cy="193.6" r="169.4"/>
<path class="st1" d="M195.5,105.7c6,0,10.9,4.9,10.9,10.9V182h65.4c6,0,10.9,4.9,10.9,10.9c0,6-4.9,10.9-10.9,10.9h-65.4v65.4
	c0,6-4.9,10.9-10.9,10.9s-10.9-4.9-10.9-10.9v-65.4h-65.4c-6,0-10.9-4.9-10.9-10.9c0-6,4.9-10.9,10.9-10.9h65.4v-65.4
	C184.6,110.6,189.5,105.7,195.5,105.7z"/>
<g transform="translate(0,-952.36218)">
	<path class="st2" d="M380.8,983.1c-3.9,0.2-7.5,2-10.1,4.8c-53.3,55.8-139.9,151.1-195.7,210l-74.1-56.7c-6.5-5.1-15.9-3.9-21,2.6
		s-3.9,15.9,2.6,21c0.1,0.1,0.2,0.2,0.3,0.2l84.9,64.9c6.1,4.6,14.6,3.9,19.8-1.6c55.8-58.4,149.6-162.1,204.8-219.8
		c5.9-5.8,5.9-15.3,0.1-21.2C389.3,984.5,385.1,982.9,380.8,983.1z M21.8,1008.2c-8.3,0-15,6.7-15,15v279.7c0,8.3,6.7,15,15,15
		h279.7c8.3,0,15-6.7,15-15v-149.9c0.1-8.3-6.5-15.1-14.8-15.2c-8.3-0.1-15.1,6.5-15.2,14.8c0,0.1,0,0.3,0,0.4V1288H36.8v-249.8
		h234.8c8.3,0.1,15.1-6.5,15.2-14.8s-6.5-15.1-14.8-15.2c-0.1,0-0.3,0-0.4,0L21.8,1008.2L21.8,1008.2z"/>
</g>
</svg>
