<?xml version="1.0" encoding="utf-8"?>
<!-- Generator: Adobe Illustrator 25.4.0, SVG Export Plug-In . SVG Version: 6.00 Build 0)  -->
<svg version="1.1" id="Calque_1" xmlns="http://www.w3.org/2000/svg" xmlns:xlink="http://www.w3.org/1999/xlink" x="0px" y="0px"
	 viewBox="0 0 400 400" style="enable-background:new 0 0 400 400;" xml:space="preserve">
<style type="text/css">
	.st0{display:none;fill:#E94649;}
	.st1{display:none;fill:#FFFFFF;}
	.st2{fill:#494848;}
</style>
<circle class="st0" cx="194.7" cy="193.6" r="169.4"/>
<path class="st1" d="M195.5,105.7c6,0,10.9,4.9,10.9,10.9V182h65.4c6,0,10.9,4.9,10.9,10.9c0,6-4.9,10.9-10.9,10.9h-65.4v65.4
	c0,6-4.9,10.9-10.9,10.9s-10.9-4.9-10.9-10.9v-65.4h-65.4c-6,0-10.9-4.9-10.9-10.9c0-6,4.9-10.9,10.9-10.9h65.4v-65.4
	C184.6,110.6,189.5,105.7,195.5,105.7z"/>
<g transform="translate(0,-952.36218)">
	<path class="st2" d="M58.1,1008.2c-8.3,0-15,6.7-15,15v279.7c0,8.3,6.7,15,15,15h279.7c8.3,0,15-6.7,15-15v-149.9
		c0.1-8.3-6.5-15.1-14.8-15.2c-8.3-0.1-15.1,6.5-15.2,14.8c0,0.1,0,0.3,0,0.4V1288H73.1v-249.8h234.8c8.3,0.1,15.1-6.5,15.2-14.8
		s-6.5-15.1-14.8-15.2c-0.1,0-0.3,0-0.4,0L58.1,1008.2L58.1,1008.2z"/>
</g>
</svg>
