<?xml version="1.0" encoding="utf-8"?>
<!-- Generator: Adobe Illustrator 25.4.0, SVG Export Plug-In . SVG Version: 6.00 Build 0)  -->
<svg version="1.1" id="Calque_1" xmlns="http://www.w3.org/2000/svg" xmlns:xlink="http://www.w3.org/1999/xlink" x="0px" y="0px"
	 viewBox="0 0 400 400" style="enable-background:new 0 0 400 400;" xml:space="preserve">
<style type="text/css">
	.st0{fill:#FFFFFF;}
</style>
<g>
	<path class="st0" d="M262.6,204.2c4.5,3.3,10.6,3.3,15.1,0c2.7-2,68.7-51.2,68.7-118.3c0-42.1-34.2-76.3-76.3-76.3
		s-76.3,34.2-76.3,76.3C193.8,153,259.8,202.1,262.6,204.2z M270.1,60.4c14,0,25.4,11.4,25.4,25.4s-11.4,25.4-25.4,25.4
		s-25.4-11.4-25.4-25.4S256.1,60.4,270.1,60.4z"/>
	<path class="st0" d="M396.9,311.7l-20.3-81.4l-19.1,12.7c-3,1.8-6.9,0.8-8.7-2.2c-1.6-2.8-0.9-6.4,1.7-8.3l23.1-15.4l-21.1-83.4
		c-0.4-1.3-0.9-2.6-1.7-3.7c-19.1,49.8-63.2,82.7-65.5,84.5c-9,6.6-21.1,6.6-30.1,0c-2.4-1.8-47.6-35.5-66.1-86.1l-58.7,31.8
		l-63.6-34.6c-6.2-3.4-13.9-1.1-17.3,5.1c-0.5,1-0.9,2-1.2,3l-21.1,83.5l23,15.4c3,1.8,4,5.7,2.2,8.7c-1.8,3-5.7,4-8.7,2.2
		c-0.2-0.1-0.4-0.3-0.6-0.4L24,230.4L3.5,311.7c-1.4,5.5,1.1,11.3,6,14.1l89,50.9c3.8,2.1,8.5,2.1,12.3,0l89.5-47.5l89.4,47.7
		c3.8,2.1,8.5,2.1,12.3,0l89-50.9C395.9,323.1,398.4,317.3,396.9,311.7z M130.3,270.2l-22.4,12c-2,1-4.4,0.9-6.4-0.3l-21.2-14.1
		c-3-1.8-4-5.7-2.2-8.7c1.8-3,5.7-4,8.7-2.2c0.2,0.1,0.4,0.3,0.6,0.4l18,12l19.1-10.2c3.3-1.2,7,0.4,8.2,3.7
		C133.7,265.5,132.7,268.6,130.3,270.2z M228.2,240.7c-1.7,3.1-5.5,4.2-8.6,2.6l-19.5-10.4l-19.5,10.4c-3.2,1.4-7,0-8.4-3.2
		c-1.3-2.9-0.3-6.3,2.4-8l22.4-12c1.9-1,4.1-1,6,0l22.4,12C228.7,233.7,229.9,237.6,228.2,240.7z M320.2,267.7l-21.2,14.1
		c-1.9,1.2-4.3,1.4-6.4,0.3l-22.6-12c-3-1.9-3.9-5.8-2-8.8c1.7-2.7,5.1-3.7,8-2.4l19.1,10.2l18-12c3-1.8,6.9-0.8,8.7,2.2
		C323.5,262.2,322.8,265.8,320.2,267.7z"/>
</g>
</svg>
