<?xml version="1.0" encoding="utf-8"?>
<!-- Generator: Adobe Illustrator 25.4.0, SVG Export Plug-In . SVG Version: 6.00 Build 0)  -->
<svg version="1.1" id="Calque_1" xmlns="http://www.w3.org/2000/svg" xmlns:xlink="http://www.w3.org/1999/xlink" x="0px" y="0px"
	 viewBox="0 0 400 400" style="enable-background:new 0 0 400 400;" xml:space="preserve">
<style type="text/css">
	.st0{display:none;fill:#E94649;}
	.st1{display:none;fill:#FFFFFF;}
	.st2{fill:#494848;}
</style>
<circle class="st0" cx="194.7" cy="193.6" r="169.4"/>
<path class="st1" d="M195.5,105.7c6,0,10.9,4.9,10.9,10.9V182h65.4c6,0,10.9,4.9,10.9,10.9c0,6-4.9,10.9-10.9,10.9h-65.4v65.4
	c0,6-4.9,10.9-10.9,10.9s-10.9-4.9-10.9-10.9v-65.4h-65.4c-6,0-10.9-4.9-10.9-10.9c0-6,4.9-10.9,10.9-10.9h65.4v-65.4
	C184.6,110.6,189.5,105.7,195.5,105.7z"/>
<g>
	<path class="st2" d="M199.8,5.6c-86.1,0-155.9,69.8-155.9,155.9c0,140.3,124.7,233.8,155.9,233.8s155.9-93.5,155.9-233.8
		C355.7,75.4,285.9,5.6,199.8,5.6z M199.8,223.9c-34.4,0-62.4-27.9-62.4-62.4s27.9-62.4,62.4-62.4s62.4,27.9,62.4,62.4
		S234.2,223.9,199.8,223.9z"/>
</g>
</svg>
