<?xml version="1.0" encoding="utf-8"?>
<!-- Generator: Adobe Illustrator 25.4.0, SVG Export Plug-In . SVG Version: 6.00 Build 0)  -->
<svg version="1.1" id="Calque_1" xmlns="http://www.w3.org/2000/svg" xmlns:xlink="http://www.w3.org/1999/xlink" x="0px" y="0px"
	 viewBox="0 0 400 400" style="enable-background:new 0 0 400 400;" xml:space="preserve">
<style type="text/css">
	.st0{fill:#E1E1E0;}
	.st1{fill:#494848;}
</style>
<circle class="st0" cx="194.7" cy="193.6" r="169.4"/>
<path class="st1" d="M195.5,105.7c6,0,10.9,4.9,10.9,10.9V182h65.4c6,0,10.9,4.9,10.9,10.9c0,6-4.9,10.9-10.9,10.9h-65.4v65.4
	c0,6-4.9,10.9-10.9,10.9s-10.9-4.9-10.9-10.9v-65.4h-65.4c-6,0-10.9-4.9-10.9-10.9c0-6,4.9-10.9,10.9-10.9h65.4v-65.4
	C184.6,110.6,189.5,105.7,195.5,105.7z"/>
</svg>
