<?xml version="1.0" encoding="utf-8"?>
<!-- Generator: Adobe Illustrator 25.4.0, SVG Export Plug-In . SVG Version: 6.00 Build 0)  -->
<svg version="1.1" id="Calque_1"
	xmlns="http://www.w3.org/2000/svg"
	xmlns:xlink="http://www.w3.org/1999/xlink" x="0px" y="0px" viewBox="0 0 400 400" style="enable-background:new 0 0 400 400;" xml:space="preserve">
	<style type="text/css">
	</style>
	<path class="st0" d="M381.5,27.6H95.8c-8.6,0-15.5,7-15.5,15.5V346c0,15.1-12.2,27.3-27.3,27.3h316.8c15.1,0,27.3-12.2,27.3-27.3
	V43.1C397,34.5,390.1,27.6,381.5,27.6z M197.3,300.2h-74.7V154.4h74.7V300.2z M354.7,292.9H229.1V270h125.6V292.9z M354.7,238.7
	H229.1v-22.8h125.6V238.7z M354.7,184.5H229.1v-22.8h125.6V184.5z M354.7,97.8h-232V75h232.1L354.7,97.8L354.7,97.8z" fill="#000"/>
	<path class="st0" d="M57.1,91.7H19c-8.6,0-15.5,7-15.5,15.5c0,0,0,206.8,0,227.9c0,16.3,3.7,27.3,14.5,33.1
	c13.3-0.2,23.2-2.8,29.1-8.1c10.1-8.9,10.1-26,10.1-42.6L57.1,91.7L57.1,91.7z" fill="#000" />
</svg>
