<?xml version="1.0" encoding="utf-8"?>
<!-- Generator: Adobe Illustrator 25.4.0, SVG Export Plug-In . SVG Version: 6.00 Build 0)  -->
<svg version="1.1" id="Calque_1" xmlns="http://www.w3.org/2000/svg" xmlns:xlink="http://www.w3.org/1999/xlink" x="0px" y="0px"
	 viewBox="0 0 400 400" style="enable-background:new 0 0 400 400;" xml:space="preserve">
<style type="text/css">
	.st0{display:none;fill:#E94649;}
	.st1{display:none;fill:#FFFFFF;}
	.st2{fill:#FFFFFF;}
</style>
<circle class="st0" cx="194.7" cy="193.6" r="169.4"/>
<path class="st1" d="M195.5,105.7c6,0,10.9,4.9,10.9,10.9V182h65.4c6,0,10.9,4.9,10.9,10.9c0,6-4.9,10.9-10.9,10.9h-65.4v65.4
	c0,6-4.9,10.9-10.9,10.9s-10.9-4.9-10.9-10.9v-65.4h-65.4c-6,0-10.9-4.9-10.9-10.9c0-6,4.9-10.9,10.9-10.9h65.4v-65.4
	C184.6,110.6,189.5,105.7,195.5,105.7z"/>
<g transform="translate(0,-952.36218)">
	<path class="st2" d="M5.3,1148.8c0,5.6,1.9,10.4,5.7,14.5l112.6,119.6c7.3,7.1,22.5,9.7,30.8,1.8c8.3-7.9,7-23.6-0.2-30.8l-79.1-84
		h291.7c11.7,0,21.1-9.4,21.1-21.1c0-11.7-9.4-21.1-21.1-21.1H75l79.1-84c8.4-7.8,8.6-23,0.2-30.8c-8.5-7.9-23.2-5.1-30.8,1.8
		L11,1134.3C7.6,1138,5.5,1143.8,5.3,1148.8L5.3,1148.8z"/>
</g>
</svg>
