<?xml version="1.0" encoding="utf-8"?>
<!-- Generator: Adobe Illustrator 25.4.0, SVG Export Plug-In . SVG Version: 6.00 Build 0)  -->
<svg version="1.1" id="Calque_1" xmlns="http://www.w3.org/2000/svg" xmlns:xlink="http://www.w3.org/1999/xlink" x="0px" y="0px"
	 viewBox="0 0 400 400" style="enable-background:new 0 0 400 400;" xml:space="preserve">
<style type="text/css">
</style>
<g>
	<path class="st0" d="M179.9,154.9c-9.6-19.3-29.7-32.7-52.7-32.7c-32.7,0-59,26.4-59,59c0,20.9,10.9,38.9,27.2,49.8
		c11.3-21.3,32.7-36.4,57.3-39.8C159,177.1,168.2,165,179.9,154.9z" fill="#000"/>
	<path class="st0" d="M341.9,211c-2.5,0-5,0.4-7.5,0.4c-10.9-36-44.4-62-84.1-62c-39.3,0-72.8,26-83.7,62c-1.3,0-2.5,0-3.8,0
		c-31.4,0-56.9,25.5-56.9,56.9s25.5,56.9,56.9,56.9h179.2c31.4,0,56.9-25.5,56.9-56.9C398.9,236.6,373.3,211,341.9,211z" fill="#000"/>
	<path class="st0" d="M126.8,105.5c6.7,0,12.1-5.4,12.1-12.1V68.3c0-6.7-5.4-12.1-12.1-12.1c-6.7,0-12.1,5.4-12.1,12.1v25.1
		C114.6,100.1,120.1,105.5,126.8,105.5z" fill="#000"/>
	<path class="st0" d="M56,127.7c2.5,2.5,5.4,3.8,8.8,3.8c2.9,0,6.3-1.3,8.8-3.8c4.6-4.6,4.6-12.6,0-17.2l-18.4-18
		C50.6,88,42.6,88,38,92.6s-4.6,12.6,0,17.2L56,127.7z" fill="#000"/>
	<path class="st0" d="M51,181.7c0-6.7-5.4-12.1-12.1-12.1H13.7c-6.7,0-12.1,5.4-12.1,12.1c0,6.7,5.4,12.1,12.1,12.1h25.1
		C45.5,193.9,51,188.4,51,181.7z" fill="#000"/>
	<path class="st0" d="M56,235.3l-18,18c-4.6,4.6-4.6,12.6,0,17.2c2.5,2.5,5.4,3.8,8.8,3.8c2.9,0,6.3-1.3,8.8-3.8l18-18
		c4.6-4.6,4.6-12.6,0-17.2C68.6,230.7,60.6,230.7,56,235.3z" fill="#000"/>
	<path class="st0" d="M189.5,131.5c2.9,0,6.3-1.3,8.8-3.8l18-18c4.6-4.6,4.6-12.6,0-17.2c-4.6-4.6-12.6-4.6-17.2,0l-18,18
		c-4.6,4.6-4.6,12.6,0,17.2C183.3,130.2,186.2,131.5,189.5,131.5z" fill="#000"/>
</g>
</svg>
