<?xml version="1.0" ?><svg id="Layer_1_1_" style="enable-background:new 0 0 64 64;" version="1.1" viewBox="0 -10 64 80" xml:space="preserve" xmlns="http://www.w3.org/2000/svg" xmlns:xlink="http://www.w3.org/1999/xlink"><g><path  fill="#000" d="M45.037,25.651C45.649,25.162,46,24.432,46,23.648c0-0.675-0.274-1.336-0.751-1.813L43.414,20   c-1.289-1.29-3.539-1.29-4.828,0l-1.358,1.358C36.436,22.15,36,23.203,36,24.345c0,0.571,0.114,1.127,0.339,1.652   c1.867,4.357,5.282,7.818,9.615,9.745l2.02,0.897C48.514,36.878,49.087,37,49.678,37c1.121,0,2.174-0.437,2.964-1.229L54,34.414   c0.645-0.646,1-1.503,1-2.414c0-0.912-0.355-1.77-1-2.414L52.414,28c-1.289-1.29-3.539-1.29-4.828,0l-0.638,0.638   C46.714,28.872,46.404,29,46.074,29h-0.148c-0.33,0-0.64-0.128-0.874-0.362l-0.69-0.69C44.128,27.714,44,27.404,44,27.074   c0-0.377,0.169-0.729,0.464-0.964L45.037,25.651z M43.788,24.089l-0.573,0.459C42.443,25.165,42,26.085,42,27.074   c0,0.864,0.336,1.677,0.948,2.288l0.69,0.69C44.249,30.664,45.062,31,45.926,31h0.148c0.864,0,1.677-0.336,2.288-0.948L49,29.414   c0.526-0.526,1.474-0.526,2,0L52.586,31C52.849,31.263,53,31.628,53,32c0,0.377-0.147,0.733-0.414,1l-1.358,1.358   c-0.632,0.631-1.623,0.817-2.441,0.452l-2.02-0.897c-3.871-1.72-6.921-4.812-8.589-8.705C38.06,24.934,38,24.644,38,24.322   c0-0.585,0.228-1.136,0.642-1.55L40,21.414C40.263,21.151,40.628,21,41,21s0.737,0.151,1,0.414l1.835,1.835   C43.94,23.354,44,23.5,44,23.648C44,23.82,43.923,23.981,43.788,24.089z"/><path  fill="#000" d="M59,5V1H38c-2.548,0-4.775,1.373-6,3.413C30.775,2.373,28.548,1,26,1H5v4H1v51c0,1.654,1.346,3,3,3h23.101   c0.464,2.279,2.485,4,4.899,4s4.435-1.721,4.899-4H60c1.654,0,3-1.346,3-3V5H59z M7,49h19c2.414,0,4.434,1.721,4.899,4H7V49z M38,3   h19v44H38c-1.958,0-3.728,0.81-5,2.111V8C33,5.243,35.243,3,38,3z M57,49v4H33.101c0.465-2.279,2.484-4,4.899-4H57z M26,3   c2.757,0,5,2.243,5,5v41.111C29.728,47.81,27.958,47,26,47H7V3H26z M61,56c0,0.552-0.449,1-1,1H35v1c0,1.654-1.346,3-3,3   s-3-1.346-3-3v-1H4c-0.551,0-1-0.448-1-1V7h2v48h26h2h26V7h2V56z"/><path  fill="#000" d="M55,5H35v12h20V5z M53,15H37V7h16V15z"/><path  fill="#000" d="M29,17H9v16h20V17z M27,31H11V19h16V31z"/><rect height="2" width="16" x="35" y="43"/><rect height="2" width="2" x="53" y="43"/><rect height="2" width="20" x="35" y="39"/><rect height="2" width="20" x="9" y="5"/><rect height="2" width="20" x="9" y="9"/><rect height="2" width="20" x="9" y="13"/><rect height="2" width="20" x="9" y="35"/><rect height="2" width="20" x="9" y="39"/><rect height="2" width="2" x="27" y="43"/><rect height="2" width="16" x="9" y="43"/></g></svg>