<?xml version="1.0" encoding="UTF-8"?>
<svg width="100pt" height="100pt" version="1.1" viewBox="0 0 100 100" xmlns="http://www.w3.org/2000/svg">
 <g>
  <path d="m50.059 88.316c-0.40625 0-0.77734-0.21875-0.97266-0.57031-4.0469-7.2773-9.625-14.133-15.023-20.762-9.0195-11.078-17.535-21.543-17.535-32.398 0-18.488 15.039-33.527 33.527-33.527 18.488 0 33.527 15.039 33.527 33.527 0 10.855-8.5195 21.32-17.535 32.398-5.3945 6.6289-10.977 13.484-15.023 20.762-0.19141 0.35156-0.5625 0.57031-0.96484 0.57031zm0-85.039c-17.262 0-31.309 14.043-31.309 31.309 0 10.062 8.2773 20.234 17.035 30.996 5.0391 6.1914 10.238 12.582 14.27 19.395 4.0273-6.8125 9.2305-13.199 14.27-19.395 8.7617-10.766 17.035-20.93 17.035-30.996 0.003906-17.266-14.039-31.309-31.301-31.309z"/>
  <path d="m50.059 54.328c-10.887 0-19.746-8.8594-19.746-19.746s8.8594-19.746 19.746-19.746c10.887 0 19.746 8.8594 19.746 19.746-0.003907 10.887-8.8594 19.746-19.746 19.746zm0-37.27c-9.6641 0-17.523 7.8594-17.523 17.523 0 9.6641 7.8594 17.523 17.523 17.523 9.6641 0 17.523-7.8594 17.523-17.523-0.003906-9.6602-7.8633-17.523-17.523-17.523z"/>
  <path d="m50.059 99.277c-9.4531 0-18.355-1.293-25.07-3.6328-7.0781-2.4727-10.977-5.9062-10.977-9.6719 0-3.2266 2.7969-6.1758 8.082-8.5312 4.8164-2.1445 11.578-3.6992 19.043-4.3789 0.60938-0.054688 1.1523 0.39453 1.207 1.0078 0.054688 0.60938-0.39453 1.1523-1.0078 1.207-7.2266 0.65625-13.738 2.1484-18.336 4.1914-4.3633 1.9414-6.7656 4.25-6.7656 6.5 0 2.707 3.457 5.4688 9.4883 7.5742 6.4844 2.2617 15.125 3.5078 24.336 3.5078 9.2109 0 17.852-1.2461 24.336-3.5078 6.0273-2.1055 9.4883-4.8633 9.4883-7.5742 0-2.25-2.4023-4.5586-6.7656-6.5-4.6016-2.0508-11.113-3.5391-18.336-4.1914-0.60938-0.054688-1.0625-0.59375-1.0078-1.207 0.054687-0.60937 0.59375-1.0586 1.207-1.0078 7.4609 0.67969 14.223 2.2344 19.043 4.3789 5.2852 2.3555 8.082 5.3047 8.082 8.5312 0 3.7656-3.8984 7.1992-10.977 9.6719-6.7148 2.3398-15.617 3.6328-25.07 3.6328z"/>
 </g>
</svg>
