<?xml version="1.0" encoding="utf-8"?>
<!-- Generator: Adobe Illustrator 25.3.1, SVG Export Plug-In . SVG Version: 6.00 Build 0)  -->
<svg version="1.1" id="Calque_1" xmlns="http://www.w3.org/2000/svg" xmlns:xlink="http://www.w3.org/1999/xlink" x="0px" y="0px"
	 viewBox="0 0 389.2 148.6" style="enable-background:new 0 0 389.2 148.6;" xml:space="preserve">
<style type="text/css">
	.st0{clip-path:url(#SVGID_2_);fill:#FAC199;}
	.st1{clip-path:url(#SVGID_4_);fill:#449CDF;}
	.st2{clip-path:url(#SVGID_6_);fill:#449CDF;}
	.st3{clip-path:url(#SVGID_8_);fill:#D4C1BB;}
	.st4{clip-path:url(#SVGID_10_);fill:#D4C1BB;}
	.st5{clip-path:url(#SVGID_12_);fill:#D4C1BB;}
	.st6{clip-path:url(#SVGID_14_);fill:#D4C1BB;}
	.st7{clip-path:url(#SVGID_16_);fill:#40C34D;}
	.st8{clip-path:url(#SVGID_18_);fill:#FBD010;}
	.st9{clip-path:url(#SVGID_20_);fill:#FBD010;}
	.st10{clip-path:url(#SVGID_22_);fill:#FBD010;}
	.st11{fill:#1A1A1A;}
	.st12{clip-path:url(#SVGID_24_);fill:#1A1A1A;}
	.st13{clip-path:url(#SVGID_26_);fill:#1A1A1A;}
	.st14{clip-path:url(#SVGID_28_);fill:#1A1A1A;}
	.st15{clip-path:url(#SVGID_30_);fill:#1A1A1A;}
	.st16{fill:#C1C0C0;}
	.st17{clip-path:url(#SVGID_32_);fill:#1A1A1A;}
	.st18{clip-path:url(#SVGID_34_);fill:#1A1A1A;}
	.st19{clip-path:url(#SVGID_36_);fill:#1A1A1A;}
	.st20{clip-path:url(#SVGID_38_);fill:#1A1A1A;}
	.st21{clip-path:url(#SVGID_40_);fill:#1A1A1A;}
	.st22{clip-path:url(#SVGID_42_);fill:#1A1A1A;}
</style>
<g>
	<g>
		<defs>
			<rect id="SVGID_1_" x="-36" y="-67.4" width="425.2" height="283.5"/>
		</defs>
		<clipPath id="SVGID_2_">
			<use xlink:href="#SVGID_1_"  style="overflow:visible;"/>
		</clipPath>
		<path class="st0" d="M118,131.1c0,1.7,0.3,3.4,0.9,5c0.6,1.6,1.5,3,2.6,4.3c1.2,1.2,2.5,2.2,4.1,3c1.6,0.7,3.5,1.1,5.5,1.1
			c2.1,0,3.9-0.4,5.5-1.1c1.6-0.7,3-1.7,4.2-3c1.1-1.2,2-2.7,2.6-4.3s0.9-3.3,0.9-5c0-1.7-0.3-3.4-0.9-5c-0.6-1.6-1.5-3-2.6-4.3
			c-1.1-1.2-2.5-2.2-4.2-3c-1.6-0.8-3.4-1.1-5.5-1.1c-2,0-3.9,0.4-5.5,1.1c-1.6,0.7-3,1.7-4.1,3c-1.1,1.2-2,2.7-2.6,4.3
			C118.2,127.6,118,129.3,118,131.1"/>
	</g>
	<g>
		<defs>
			<rect id="SVGID_3_" x="-36" y="-67.4" width="425.2" height="283.5"/>
		</defs>
		<clipPath id="SVGID_4_">
			<use xlink:href="#SVGID_3_"  style="overflow:visible;"/>
		</clipPath>
		<path class="st1" d="M249.2,126c-0.1-0.8-0.3-1.5-0.6-2.2c-0.6-1.5-1.4-2.9-2.5-4c-1.1-1.2-2.4-2.1-3.9-2.8s-3.2-1.1-5.2-1.1
			c-1.9,0-3.6,0.3-5.2,1.1c-1.5,0.7-2.8,1.6-3.9,2.8s-1.9,2.5-2.4,4c-0.3,0.7-0.5,1.5-0.6,2.2H249.2z"/>
	</g>
	<g>
		<defs>
			<rect id="SVGID_5_" x="-36" y="-67.4" width="425.2" height="283.5"/>
		</defs>
		<clipPath id="SVGID_6_">
			<use xlink:href="#SVGID_5_"  style="overflow:visible;"/>
		</clipPath>
		<path class="st2" d="M238.7,132.5c0.1,0.8,0.3,1.5,0.6,2.2c0.6,1.5,1.4,2.9,2.5,4c1.1,1.2,2.4,2.1,3.9,2.8
			c1.5,0.7,3.2,1.1,5.2,1.1c1.9,0,3.6-0.3,5.2-1.1c1.5-0.7,2.8-1.6,3.9-2.8c1.1-1.2,1.9-2.5,2.4-4c0.3-0.7,0.5-1.5,0.6-2.2H238.7z"
			/>
	</g>
	<g>
		<defs>
			<rect id="SVGID_7_" x="-36" y="-67.4" width="425.2" height="283.5"/>
		</defs>
		<clipPath id="SVGID_8_">
			<use xlink:href="#SVGID_7_"  style="overflow:visible;"/>
		</clipPath>
		<path class="st3" d="M18.9,126.2L18.9,126.2V126l0,0c-0.1-4.5-3.9-8.2-8.6-8.2s-8.5,3.6-8.6,8.2l0,0v0.2c0,0,0,0,0,0.1
			c0,0,0,0,0,0.1V143h17.2L18.9,126.2C18.9,126.3,18.9,126.2,18.9,126.2"/>
	</g>
	<g>
		<defs>
			<rect id="SVGID_9_" x="-36" y="-67.4" width="425.2" height="283.5"/>
		</defs>
		<clipPath id="SVGID_10_">
			<use xlink:href="#SVGID_9_"  style="overflow:visible;"/>
		</clipPath>
		<path class="st4" d="M56.2,126.2L56.2,126.2V126l0,0c-0.1-4.5-3.9-8.2-8.6-8.2s-8.5,3.6-8.6,8.2l0,0v0.2c0,0,0,0,0,0.1
			c0,0,0,0,0,0.1V143h17.2V126.2C56.2,126.3,56.2,126.2,56.2,126.2"/>
	</g>
	<g>
		<defs>
			<rect id="SVGID_11_" x="-36" y="-67.4" width="425.2" height="283.5"/>
		</defs>
		<clipPath id="SVGID_12_">
			<use xlink:href="#SVGID_11_"  style="overflow:visible;"/>
		</clipPath>
		<path class="st5" d="M93.6,126.2L93.6,126.2V126l0,0c-0.1-4.5-3.9-8.2-8.6-8.2s-8.5,3.6-8.6,8.2l0,0v0.2c0,0,0,0,0,0.1
			c0,0,0,0,0,0.1V143h17.2V126.2C93.6,126.3,93.6,126.2,93.6,126.2"/>
	</g>
	<g>
		<defs>
			<rect id="SVGID_13_" x="-36" y="-67.4" width="425.2" height="283.5"/>
		</defs>
		<clipPath id="SVGID_14_">
			<use xlink:href="#SVGID_13_"  style="overflow:visible;"/>
		</clipPath>
		<path class="st6" d="M93.5,126.2L93.5,126.2V126l0,0c-0.1-4.5-3.9-8.2-8.6-8.2s-8.5,3.6-8.6,8.2l0,0v0.2c0,0,0,0,0,0.1
			c0,0,0,0,0,0.1V143h17.2V126.2C93.5,126.3,93.5,126.2,93.5,126.2"/>
	</g>
	<g>
		<defs>
			<rect id="SVGID_15_" x="-36" y="-67.4" width="425.2" height="283.5"/>
		</defs>
		<clipPath id="SVGID_16_">
			<use xlink:href="#SVGID_15_"  style="overflow:visible;"/>
		</clipPath>
		<path class="st7" d="M311.7,143c2.1-13.4,10.3-11,14.7-9.3c9.4,3.3,8.5-11.3,19-11.5c9.1-0.1,13.2,11.5,13.3,20.7L311.7,143z"/>
	</g>
	<g>
		<defs>
			<rect id="SVGID_17_" x="-36" y="-67.4" width="425.2" height="283.5"/>
		</defs>
		<clipPath id="SVGID_18_">
			<use xlink:href="#SVGID_17_"  style="overflow:visible;"/>
		</clipPath>
		<path class="st8" d="M273.8,122.6c0-1.7,0.6-3.2,1.9-4.4s2.9-1.9,4.8-1.9s3.6,0.6,4.9,1.8s2,2.7,2,4.5s-0.7,3.3-2,4.5
			c-1.3,1.2-2.9,1.8-4.9,1.8c-1.9,0-3.5-0.6-4.8-1.9C274.4,125.8,273.8,124.3,273.8,122.6"/>
	</g>
	<g>
		<defs>
			<rect id="SVGID_19_" x="-36" y="-67.4" width="425.2" height="283.5"/>
		</defs>
		<clipPath id="SVGID_20_">
			<use xlink:href="#SVGID_19_"  style="overflow:visible;"/>
		</clipPath>
		<path class="st9" d="M292.5,122.6c0-1.7,0.6-3.2,1.9-4.4s2.9-1.9,4.8-1.9s3.6,0.6,4.9,1.8s2,2.7,2,4.5s-0.7,3.3-2,4.5
			c-1.3,1.2-2.9,1.8-4.9,1.8c-1.9,0-3.5-0.6-4.8-1.9C293.1,125.8,292.5,124.3,292.5,122.6"/>
	</g>
	<g>
		<defs>
			<rect id="SVGID_21_" x="-36" y="-67.4" width="425.2" height="283.5"/>
		</defs>
		<clipPath id="SVGID_22_">
			<use xlink:href="#SVGID_21_"  style="overflow:visible;"/>
		</clipPath>
		<path class="st10" d="M283.2,137.3c0-1.7,0.6-3.2,1.9-4.4c1.3-1.2,2.9-1.9,4.8-1.9s3.6,0.6,4.9,1.8c1.3,1.2,2,2.7,2,4.5
			c0,1.8-0.7,3.3-2,4.5c-1.3,1.2-2.9,1.8-4.9,1.8c-1.9,0-3.5-0.6-4.8-1.9C283.8,140.5,283.2,139,283.2,137.3"/>
	</g>
</g>
<polygon class="st11" points="0,12.2 4.8,12.2 9.5,24.5 9.6,24.5 14.3,12.2 18.8,12.2 11.9,29.8 7.2,29.8 "/>
<g>
	<g>
		<defs>
			<rect id="SVGID_23_" x="-36" y="-67.4" width="425.2" height="283.5"/>
		</defs>
		<clipPath id="SVGID_24_">
			<use xlink:href="#SVGID_23_"  style="overflow:visible;"/>
		</clipPath>
		<path class="st12" d="M25.2,12.2h4.4v17.6h-4.4C25.2,29.8,25.2,12.2,25.2,12.2z M24.6,6.2c0-0.7,0.3-1.3,0.8-1.9
			c0.5-0.5,1.2-0.8,2-0.8s1.5,0.2,2,0.8c0.6,0.5,0.8,1.1,0.8,1.9s-0.3,1.4-0.8,1.9c-0.6,0.5-1.2,0.8-2,0.8s-1.5-0.3-2-0.8
			C24.8,7.5,24.6,6.9,24.6,6.2"/>
	</g>
</g>
<rect x="38.4" y="2" class="st11" width="4.4" height="27.7"/>
<rect x="51.6" y="2" class="st11" width="4.4" height="27.7"/>
<g>
	<g>
		<defs>
			<rect id="SVGID_25_" x="-36" y="-67.4" width="425.2" height="283.5"/>
		</defs>
		<clipPath id="SVGID_26_">
			<use xlink:href="#SVGID_25_"  style="overflow:visible;"/>
		</clipPath>
		<path class="st13" d="M77.3,19.2c0-1.3-0.4-2.3-1.2-3.1c-0.8-0.7-1.9-1.1-3.3-1.1c-1.3,0-2.4,0.4-3.1,1.1c-0.8,0.8-1.2,1.8-1.4,3
			L77.3,19.2L77.3,19.2z M68.3,22.5c0.1,1.3,0.7,2.3,1.5,3.1c0.9,0.7,1.9,1.1,3.2,1.1c1.1,0,2-0.2,2.8-0.7c0.7-0.5,1.4-1,2-1.7
			l3.2,2.4c-1,1.3-2.2,2.2-3.4,2.7c-1.3,0.5-2.6,0.8-4,0.8c-1.3,0-2.6-0.2-3.7-0.7c-1.2-0.4-2.2-1.1-3-1.9c-0.9-0.8-1.5-1.8-2-2.9
			s-0.8-2.4-0.8-3.8s0.3-2.7,0.8-3.8c0.5-1.1,1.2-2.1,2-2.9c0.9-0.8,1.9-1.4,3-1.9c1.2-0.4,2.4-0.7,3.7-0.7c1.2,0,2.3,0.2,3.4,0.6
			c1,0.4,1.9,1,2.6,1.9c0.7,0.8,1.3,1.8,1.7,3c0.4,1.2,0.6,2.6,0.6,4.1v1.2H68.3V22.5z"/>
	</g>
	<g>
		<defs>
			<rect id="SVGID_27_" x="-36" y="-67.4" width="425.2" height="283.5"/>
		</defs>
		<clipPath id="SVGID_28_">
			<use xlink:href="#SVGID_27_"  style="overflow:visible;"/>
		</clipPath>
		<path class="st14" d="M107.6,21c0,0.7,0.1,1.3,0.3,2c0.2,0.6,0.6,1.2,1,1.7c0.5,0.5,1,0.9,1.6,1.2c0.6,0.3,1.4,0.4,2.2,0.4
			s1.5-0.1,2.2-0.4c0.6-0.3,1.2-0.7,1.6-1.2c0.5-0.5,0.8-1.1,1-1.7s0.3-1.3,0.3-2s-0.1-1.3-0.3-2c-0.2-0.6-0.6-1.2-1-1.7
			c-0.5-0.5-1-0.9-1.6-1.2c-0.6-0.3-1.4-0.4-2.2-0.4s-1.5,0.1-2.2,0.4c-0.6,0.3-1.2,0.7-1.6,1.2c-0.5,0.5-0.8,1.1-1,1.7
			C107.7,19.6,107.6,20.3,107.6,21 M118,27.2L118,27.2c-0.7,1.1-1.6,1.9-2.6,2.4c-1.1,0.5-2.2,0.7-3.5,0.7c-1.4,0-2.6-0.2-3.7-0.7
			c-1.1-0.5-2-1.1-2.7-2c-0.8-0.8-1.3-1.8-1.7-2.9s-0.6-2.3-0.6-3.6c0-1.3,0.2-2.5,0.6-3.6c0.4-1.1,1-2.1,1.7-2.9s1.6-1.5,2.7-2
			c1.1-0.5,2.2-0.7,3.4-0.7c0.8,0,1.6,0.1,2.2,0.3c0.6,0.2,1.2,0.4,1.7,0.7c0.5,0.3,0.9,0.6,1.2,0.9s0.6,0.6,0.8,0.9h0.1V2h4.4v27.7
			h-4V27.2z"/>
	</g>
	<g>
		<defs>
			<rect id="SVGID_29_" x="-36" y="-67.4" width="425.2" height="283.5"/>
		</defs>
		<clipPath id="SVGID_30_">
			<use xlink:href="#SVGID_29_"  style="overflow:visible;"/>
		</clipPath>
		<path class="st15" d="M143.4,19.2c0-1.3-0.4-2.3-1.2-3.1c-0.8-0.7-1.9-1.1-3.3-1.1c-1.3,0-2.4,0.4-3.1,1.1c-0.8,0.8-1.2,1.8-1.4,3
			L143.4,19.2L143.4,19.2z M134.4,22.5c0.1,1.3,0.7,2.3,1.5,3.1c0.9,0.7,1.9,1.1,3.2,1.1c1.1,0,2-0.2,2.8-0.7c0.7-0.5,1.4-1,2-1.7
			l3.2,2.4c-1,1.3-2.2,2.2-3.4,2.7c-1.3,0.5-2.6,0.8-4,0.8c-1.3,0-2.6-0.2-3.7-0.7c-1.2-0.4-2.2-1.1-3-1.9c-0.9-0.8-1.5-1.8-2-2.9
			s-0.8-2.4-0.8-3.8s0.3-2.7,0.8-3.8c0.5-1.1,1.2-2.1,2-2.9c0.9-0.8,1.9-1.4,3-1.9c1.2-0.4,2.4-0.7,3.7-0.7c1.2,0,2.3,0.2,3.4,0.6
			c1,0.4,1.9,1,2.6,1.9c0.7,0.8,1.3,1.8,1.7,3s0.6,2.6,0.6,4.1v1.2h-13.6V22.5z"/>
	</g>
</g>
<polygon class="st16" points="208,142.7 208,127.1 208,125.8 208,122.8 203.6,116.8 203.6,115.2 201.4,110.9 199.2,115.2 
	199.2,116.8 197.7,118.9 196.5,116.7 194.8,120.1 194.8,126 171.4,126 161.1,142.7 "/>
<g>
	<g>
		<defs>
			<rect id="SVGID_31_" x="-36" y="-67.4" width="425.2" height="283.5"/>
		</defs>
		<clipPath id="SVGID_32_">
			<use xlink:href="#SVGID_31_"  style="overflow:visible;"/>
		</clipPath>
		<path class="st17" d="M206.8,56.9c-1.3-1.7-3-3-5.1-4s-4.6-1.5-7.4-1.5c-3.3,0-6.2,0.9-8.7,2.6c-1.8,1.2-3.2,2.6-4.2,4.1v-5.5H170
			v44h11.9V72.5c0-1.4,0.2-2.7,0.6-4.1c0.4-1.3,1-2.5,1.7-3.5s1.7-1.8,2.9-2.5c1.2-0.6,2.6-1,4.2-1c1.6,0,2.9,0.3,3.8,1
			c1,0.7,1.7,1.5,2.3,2.5s0.9,2.2,1.1,3.5c0.2,1.3,0.3,2.6,0.3,3.8v24.4h11.9V69.3c0-2.2-0.3-4.5-0.9-6.6
			C209.1,60.5,208.1,58.6,206.8,56.9"/>
	</g>
	<g>
		<defs>
			<rect id="SVGID_33_" x="-36" y="-67.4" width="425.2" height="283.5"/>
		</defs>
		<clipPath id="SVGID_34_">
			<use xlink:href="#SVGID_33_"  style="overflow:visible;"/>
		</clipPath>
		<path class="st18" d="M143.5,74.4c0,1.6-0.2,3.2-0.7,4.8s-1.2,3-2.2,4.3c-1,1.2-2.2,2.3-3.6,3c-1.5,0.8-3.2,1.2-5.2,1.2
			s-3.8-0.4-5.2-1.2c-1.5-0.8-2.7-1.8-3.6-3c-1-1.2-1.7-2.7-2.2-4.3s-0.7-3.2-0.7-4.8s0.2-3.2,0.7-4.8l0,0c0.5-1.6,1.2-3,2.2-4.2
			c0.9-1.2,2.2-2.2,3.6-3c1.4-0.8,3.2-1.1,5.3-1.1c2,0,3.8,0.4,5.3,1.1c1.5,0.8,2.7,1.8,3.6,3c1,1.2,1.7,2.7,2.2,4.2
			C143.2,71.2,143.5,72.8,143.5,74.4 M148.6,57.6c-2.1-2-4.7-3.6-7.6-4.7c-2.9-1.1-6-1.6-9.3-1.6s-6.4,0.6-9.3,1.6
			c-2.9,1.1-5.5,2.7-7.6,4.7s-3.8,4.5-5.1,7.3c-1.2,2.8-1.9,6-1.9,9.5s0.6,6.7,1.9,9.5c1.2,2.9,3,5.3,5.1,7.4c2.1,2,4.7,3.7,7.6,4.8
			c2.9,1.2,6,1.7,9.3,1.7s6.4-0.6,9.3-1.7c2.9-1.2,5.5-2.8,7.6-4.8s3.8-4.5,5.1-7.4c1.2-2.9,1.9-6.1,1.9-9.5s-0.6-6.6-1.9-9.5
			C152.4,62.1,150.7,59.7,148.6,57.6"/>
	</g>
	<g>
		<defs>
			<rect id="SVGID_35_" x="-36" y="-67.4" width="425.2" height="283.5"/>
		</defs>
		<clipPath id="SVGID_36_">
			<use xlink:href="#SVGID_35_"  style="overflow:visible;"/>
		</clipPath>
		<path class="st19" d="M257.4,69.7h-20.7c0.3-2.6,1.5-4.7,3.4-6.4c2.1-1.8,4.7-2.8,7.8-2.8c1.6,0,3.1,0.3,4.3,0.8
			c1.2,0.5,2.2,1.2,3,2.1c0.8,0.9,1.3,1.9,1.7,3.1C257.2,67.6,257.3,68.6,257.4,69.7 M263.2,57.4c-1.9-2-4.2-3.5-6.8-4.5
			c-2.6-1-5.4-1.5-8.5-1.5c-3.3,0-6.4,0.6-9.2,1.7c-2.8,1.1-5.3,2.7-7.4,4.8c-2.1,2-3.7,4.5-4.9,7.4c-1.2,2.9-1.8,6.1-1.8,9.6
			c0,3.6,0.6,6.8,1.8,9.6c1.2,2.8,2.9,5.3,5,7.2s4.6,3.5,7.5,4.5c2.8,1.1,6,1.6,9.4,1.6c8.2,0,14.5-3,18.9-8.8l0.3-0.5l-8.1-6.5
			l-0.4,0.5c-1.1,1.6-2.6,2.9-4.3,3.9c-1.7,0.9-3.9,1.4-6.5,1.4c-1.5,0-2.9-0.3-4.2-0.8c-1.4-0.5-2.6-1.2-3.7-2.1
			c-1.1-0.9-1.9-1.9-2.6-3.1c-0.5-1-0.9-2.1-1.1-3.4H269l0.1-0.5c0.1-0.5,0.1-1,0.1-1.5V75c0-3.9-0.5-7.4-1.6-10.3
			C266.6,61.8,265.1,59.3,263.2,57.4"/>
	</g>
</g>
<rect x="284" y="52.6" class="st11" width="11.9" height="44"/>
<g>
	<g>
		<defs>
			<rect id="SVGID_37_" x="-36" y="-67.4" width="425.2" height="283.5"/>
		</defs>
		<clipPath id="SVGID_38_">
			<use xlink:href="#SVGID_37_"  style="overflow:visible;"/>
		</clipPath>
		<path class="st20" d="M352.7,62.6c-0.6-2.1-1.6-4.1-2.9-5.7c-1.3-1.7-3-3-5.1-4s-4.6-1.5-7.4-1.5c-3.3,0-6.2,0.9-8.7,2.6
			c-1.8,1.2-3.2,2.6-4.2,4.1v-5.5H313v44h11.9V72.5c0-1.4,0.2-2.7,0.6-4.1c0.4-1.3,1-2.5,1.7-3.5s1.7-1.8,2.9-2.5
			c1.2-0.6,2.6-1,4.2-1s2.9,0.3,3.8,1c1,0.7,1.7,1.5,2.3,2.5c0.6,1,0.9,2.2,1.1,3.5s0.3,2.6,0.3,3.8v24.4h11.9V69.3
			C353.6,67,353.3,64.8,352.7,62.6"/>
	</g>
	<g>
		<defs>
			<rect id="SVGID_39_" x="-36" y="-67.4" width="425.2" height="283.5"/>
		</defs>
		<clipPath id="SVGID_40_">
			<use xlink:href="#SVGID_39_"  style="overflow:visible;"/>
		</clipPath>
		<path class="st21" d="M88.2,48.7c-1.9-2.3-4.3-4.1-7.2-5.4c-2.9-1.3-6.3-2-10.3-2c-4.4,0-8.5,1.1-12.2,3.2
			c-3.4,1.9-6.1,4.7-8.1,8.1c-1.9-3.8-4.4-6.7-7.4-8.4c-3.3-1.9-7.1-2.9-11.3-2.9c-4.7,0-8.8,1.2-12.2,3.5c-2.9,2-5.2,4.3-6.8,7
			L12.6,43H0.1l0.2,53.6h13.1V71.7c0-5.8,1.4-10.5,4.2-14c2.8-3.4,6.3-5.2,10.5-5.2c2.3,0,4.2,0.4,5.7,1.1c1.5,0.8,2.8,1.8,3.7,3.1
			c1,1.3,1.6,2.9,2.1,4.8c0.4,1.9,0.6,4,0.6,6.3v28.7h13.1V71.1c0-2.3,0.3-4.6,0.8-6.8s1.4-4.2,2.6-6c1.2-1.7,2.7-3.2,4.6-4.3
			c1.8-1.1,4.1-1.6,6.7-1.6c2.5,0,4.6,0.5,6.2,1.4c1.6,1,2.9,2.3,3.8,3.8c1,1.6,1.7,3.5,2.1,5.6s0.6,4.5,0.6,6.9v26.3h13.1V66.2
			c0-3.4-0.5-6.7-1.4-9.7C91.5,53.6,90.1,51,88.2,48.7"/>
	</g>
	<g>
		<defs>
			<rect id="SVGID_41_" x="-36" y="-67.4" width="425.2" height="283.5"/>
		</defs>
		<clipPath id="SVGID_42_">
			<use xlink:href="#SVGID_41_"  style="overflow:visible;"/>
		</clipPath>
		<path class="st22" d="M289.8,31.6c-2.1,0-3.9,0.7-5.3,2.1s-2.1,3-2.1,4.9s0.7,3.5,2.1,4.9s3.2,2.1,5.3,2.1c2.1,0,3.9-0.7,5.4-2
			s2.2-3,2.2-5s-0.7-3.7-2.2-5C293.7,32.3,291.9,31.6,289.8,31.6"/>
	</g>
</g>
</svg>
