<?xml version="1.0" ?><svg data-name="Layer 1" id="Layer_1" viewBox="0 -10 64 80" xmlns="http://www.w3.org/2000/svg"><title/><path  fill="#000" d="M51.707,2.293A1,1,0,0,0,51,2H13a1,1,0,0,0-.707.293l-10,10A1,1,0,0,0,3,14V61a1,1,0,0,0,1,1H60a1,1,0,0,0,1-1V14a1,1,0,0,0,.707-1.707ZM13.414,4H50.586l8,8H5.414ZM51,14v3a3,3,0,0,1-6,0V14Zm-8,0v3a3,3,0,0,1-6,0V14Zm-8,0v3a3,3,0,0,1-6,0V14Zm-8,0v3a3,3,0,0,1-6,0V14Zm-8,0v3a3,3,0,0,1-6,0V14ZM5,14h6v3a3,3,0,0,1-6,0ZM22,60H5V51H22Zm18,0H24V44H40Zm19,0H42V51H59Zm0-11H42V43a1,1,0,0,0-1-1H23a1,1,0,0,0-1,1v6H5V37H59Zm0-14H5V20.974a4.932,4.932,0,0,0,7-1,4.954,4.954,0,0,0,8,0,4.954,4.954,0,0,0,8,0,4.954,4.954,0,0,0,8,0,4.954,4.954,0,0,0,8,0,4.954,4.954,0,0,0,8,0,4.932,4.932,0,0,0,7,1Zm0-18a3,3,0,0,1-6,0V14h6Z"/></svg>