<?xml version="1.0" encoding="UTF-8"?>
<svg width="100pt" height="100pt" version="1.1" viewBox="0 0 100 100" xmlns="http://www.w3.org/2000/svg">
 <g>
  <path d="m42.465 27.117c-0.67578 0-1.2227 0.54687-1.2227 1.2227v21.18c0 0.67578 0.54687 1.2227 1.2227 1.2227 0.67578 0 1.2227-0.54688 1.2227-1.2227v-21.18c0-0.67969-0.54688-1.2227-1.2227-1.2227z"/>
  <path d="m37.402 27.117c-0.67578 0-1.2227 0.54687-1.2227 1.2227v21.18c0 0.67578 0.54687 1.2227 1.2227 1.2227 0.67578 0 1.2227-0.54688 1.2227-1.2227v-21.18c0-0.67969-0.54688-1.2227-1.2227-1.2227z"/>
  <path d="m36.105 86.91v3.5898c0 2.1055 1.7109 3.8203 3.8203 3.8203 2.1055 0 3.8164-1.7148 3.8164-3.8203v-1.5117c2.2578 0.38672 4.5781 0.59766 6.9492 0.59766 3.9258 0 7.7227-0.5625 11.32-1.5977v2.4648c0 2.1289 1.7344 3.8633 3.8633 3.8633s3.8594-1.7344 3.8594-3.8633v-5.5586c13.129-6.8828 22.113-20.641 22.113-36.469 0-22.695-18.465-41.156-41.156-41.156-22.695 0-41.156 18.465-41.156 41.156-0.003906 17.562 11.055 32.582 26.57 38.484zm25.906-1.4609c-3.582 1.0977-7.3828 1.6914-11.32 1.6914-2.3711 0-4.6914-0.22656-6.9492-0.63672v-4.7969c2.2422 0.47266 4.5664 0.72266 6.9492 0.72266 3.9688 0 7.7812-0.69531 11.32-1.9648zm6.5-59.668c-12.703 0-14.227 37.004-14.355 41.223-0.011719 0.33203 0.11328 0.65234 0.34375 0.89062s0.54688 0.37109 0.87891 0.37109h3.1875c0.67578 0 1.2227-0.54688 1.2227-1.2227s-0.54687-1.2227-1.2227-1.2227h-1.918c0.59375-14.223 3.8906-35.117 10.641-37.387v62.023c0 0.78125-0.63672 1.4141-1.4141 1.4141-0.78125 0-1.4141-0.63281-1.4141-1.4141l-0.003907-23.414c0-0.67578-0.54688-1.2227-1.2266-1.2227-0.67578 0-1.2227 0.54688-1.2227 1.2227v11.176c-3.5195 1.3555-7.332 2.1055-11.32 2.1055-2.3867 0-4.7109-0.27344-6.9492-0.78125v-22.305c3.8398-1.5977 6.4492-5.5195 6.4492-9.8477l0.003906-19.051c0-0.67578-0.54688-1.2227-1.2227-1.2227s-1.2227 0.54687-1.2227 1.2227v19.055c0 3.582-2.3008 6.8008-5.5898 7.8203l-0.85938 0.26562v35.016c0 0.75781-0.61328 1.375-1.3711 1.375-0.75781 0-1.375-0.61719-1.375-1.375l-0.003906-35.016-0.85938-0.26562c-3.2891-1.0234-5.5898-4.2383-5.5898-7.8203v-19.055c0-0.67578-0.54688-1.2227-1.2227-1.2227s-1.2227 0.54687-1.2227 1.2227v19.055c0 4.3281 2.6094 8.25 6.4492 9.8477v19.504c-10.086-5.2773-16.992-15.84-16.992-27.992 0-17.41 14.164-31.574 31.574-31.574 17.414 0 31.578 14.16 31.578 31.57 0 10.262-4.9258 19.395-12.527 25.164v-46.91c0-0.67188-0.54688-1.2227-1.2227-1.2227zm-17.824-16.062c21.344 0 38.711 17.367 38.711 38.711 0 14.422-7.9375 27.02-19.664 33.68v-5.6016c8.832-6.0781 14.633-16.25 14.633-27.758 0-18.57-15.109-33.68-33.68-33.68s-33.68 15.109-33.68 33.68c0 13.348 7.8086 24.91 19.098 30.355v5.1719c-14.137-5.7734-24.125-19.66-24.125-35.848-0.003907-21.344 17.363-38.711 38.707-38.711z"/>
 </g>
</svg>
