<?xml version="1.0" ?><svg id="Layer_1" style="enable-background:new 0 0 128 128;" version="1.1" viewBox="0 0 128 128" xml:space="preserve" xmlns="http://www.w3.org/2000/svg" xmlns:xlink="http://www.w3.org/1999/xlink"><g><path  fill="#000" d="M42,111.3h44c5.2,0,9.4-4.2,9.4-9.4V31.3c0-5.2-4.2-9.4-9.4-9.4H42c-5.2,0-9.4,4.2-9.4,9.4V102   C32.6,107.1,36.8,111.3,42,111.3z M36.3,102V31.3c0-3.1,2.5-5.6,5.6-5.6h44c3.1,0,5.6,2.5,5.6,5.6V102c0,3.1-2.5,5.6-5.6,5.6H42   C38.9,107.6,36.3,105.1,36.3,102z"/><path  fill="#000" d="M81.8,52.3c-0.2-3.5-1.3-6.7-3.4-9.5c-2.2-2.9-4.9-5-8.3-6.3c-1.5-0.6-3.1-0.9-4.7-1c-0.8-0.1-1.7-0.1-2.5-0.1   c-2.6,0.2-5,0.8-7.3,2c-4.9,2.7-8,6.7-9.2,12.2c-0.2,0.7-0.2,1.4-0.3,2.2c0,0.1,0,0.2-0.1,0.3c0,0.8,0,1.6,0,2.4   c0.1,0.5,0.1,0.9,0.2,1.4c0.4,3,1.6,5.7,3.4,8.2c2.6,3.3,5.9,5.6,10,6.6c0.9,0.2,1.9,0.3,2.9,0.5c0.1,0,0.2,0,0.3,0.1   c0.8,0,1.6,0,2.4,0c0.4-0.1,0.9-0.1,1.3-0.2c3.1-0.4,5.9-1.6,8.4-3.6c3.3-2.5,5.4-5.8,6.4-9.8C81.7,55.9,81.9,54.1,81.8,52.3z    M62.7,38c0,2.3,0,4.6,0,6.9c-1.9,0-3.8,0-5.8,0C57.5,42.1,60.7,38.2,62.7,38z M62.7,47.4c0,1.6,0,3.1,0,4.7c-2.4,0-4.7,0-7.1,0   c0.1-0.7,0.1-1.4,0.2-2.1c0.1-0.8,0.3-1.6,0.4-2.4c0-0.2,0.1-0.3,0.3-0.3c2,0,4.1,0,6.1,0C62.6,47.4,62.7,47.4,62.7,47.4z    M57.2,39.4c-0.3,0.4-0.6,0.9-0.8,1.3c-0.7,1.2-1.3,2.6-1.8,3.9c-0.1,0.3-0.2,0.3-0.5,0.3c-0.9,0-1.9,0-2.8,0c-0.1,0-0.2,0-0.4,0   C52,43,55.2,40.1,57.2,39.4z M49.3,48.3c0.1-0.3,0.2-0.8,0.4-0.9c0.2-0.2,0.6-0.1,1-0.1c0.9,0,1.8,0,2.8,0c0.1,0,0.2,0,0.3,0   c-0.2,1.6-0.4,3.1-0.6,4.7c-1.5,0-3.1,0-4.7,0C48.6,50.8,48.9,49.6,49.3,48.3z M49.6,59.1c-0.6-1.4-0.9-2.9-1-4.4c0,0,0-0.1,0-0.2   c1.6,0,3.1,0,4.7,0c0.2,1.6,0.4,3.1,0.6,4.7c-0.2,0-0.5,0-0.7,0c-1,0-2.1,0-3.1,0C49.8,59.3,49.6,59.3,49.6,59.1z M50.9,61.7   c0.1,0,0.2,0,0.3,0c1,0,2,0,2.9,0c0.2,0,0.3,0.1,0.4,0.3c0.6,1.9,1.4,3.6,2.6,5.2c0,0,0,0,0,0.1C54.6,65.9,52.5,64.1,50.9,61.7z    M62.7,68.6c-0.9-0.2-1.6-0.7-2.3-1.2c-1.1-0.9-1.9-2.1-2.5-3.3c-0.4-0.7-0.6-1.4-0.9-2.1c0-0.1-0.1-0.2-0.1-0.3c1.9,0,3.9,0,5.8,0   C62.7,64,62.7,66.3,62.7,68.6z M62.7,59.2c-0.1,0-0.2,0-0.3,0c-1.9,0-3.9,0-5.8,0c-0.3,0-0.4-0.1-0.4-0.4c-0.2-1.3-0.3-2.7-0.5-4   c0-0.1,0-0.2,0-0.3c2.4,0,4.7,0,7.1,0C62.7,56.1,62.7,57.7,62.7,59.2z M78.4,47.7c0.5,1.3,0.8,2.7,1,4.2c0,0.1,0,0.2,0,0.3   c-1.6,0-3.1,0-4.7,0c-0.2-1.6-0.4-3.2-0.6-4.7c0.1,0,0.2,0,0.3,0c1.2,0,2.3,0,3.5,0C78.2,47.3,78.3,47.4,78.4,47.7z M77,45   c-0.5,0-0.9,0-1.4,0c-0.6,0-1.2,0-1.8,0c-0.3,0-0.4-0.1-0.5-0.4c-0.5-1.6-1.2-3.1-2.2-4.6c-0.1-0.2-0.3-0.4-0.4-0.6   C73.3,40.7,75.4,42.5,77,45z M65.2,38c0.7,0.2,1.3,0.5,1.9,0.9c1.3,1,2.2,2.2,2.9,3.6c0.4,0.7,0.7,1.5,1.1,2.4c-2,0-3.9,0-5.9,0   C65.2,42.6,65.2,40.3,65.2,38z M65.1,47.4c0.1,0,0.2,0,0.3,0c1.9,0,3.9,0,5.8,0c0.3,0,0.4,0.1,0.4,0.4c0.2,1.3,0.3,2.7,0.5,4   c0,0.1,0,0.2,0,0.3c-2.4,0-4.7,0-7.1,0C65.1,50.5,65.1,49,65.1,47.4z M65.1,54.5c2.4,0,4.7,0,7.1,0c-0.1,0.7-0.1,1.4-0.2,2   c-0.1,0.8-0.3,1.6-0.4,2.4c0,0.2-0.1,0.3-0.3,0.3c-2,0-4.1,0-6.1,0c0,0-0.1,0-0.1,0C65.1,57.7,65.1,56.1,65.1,54.5z M67,67.7   c-0.6,0.4-1.2,0.8-1.9,0.9c0-2.3,0-4.6,0-7c1.9,0,3.8,0,5.8,0C70.1,64,69,66.2,67,67.7z M70.8,67.2c1.1-1.6,2-3.4,2.6-5.3   c0-0.1,0.2-0.2,0.3-0.2c1.1,0,2.1,0,3.2,0c0,0,0.1,0,0.1,0.1C75.4,64.1,73.3,65.9,70.8,67.2z M79.2,56.2c-0.2,1-0.5,1.9-0.8,2.9   c0,0.1-0.2,0.2-0.3,0.2c-1.3,0-2.6,0-3.8,0c0,0-0.1,0-0.1,0c0.2-1.6,0.4-3.1,0.6-4.7c1.5,0,3.1,0,4.7,0   C79.3,55.1,79.3,55.6,79.2,56.2z"/><path  fill="#000" d="M44.2,89.5H45c1.6,0,2.3-0.9,2.3-2.5v-1.3c0-1.6-0.8-2.5-2.3-2.5h-2.3v10h1.6V89.5z M44.2,84.7H45c0.5,0,0.8,0.2,0.8,0.9   v1.5c0,0.7-0.3,0.9-0.8,0.9h-0.7V84.7z"/><path  fill="#000" d="M49.1,83.3l-1.6,10h1.4l0.3-1.8h1.9l0.3,1.8H53l-1.6-10H49.1z M49.4,90.1l0.7-5.1h0l0.7,5.1H49.4z"/><path  fill="#000" d="M53.5,90.3v0.6c0,1.6,0.8,2.5,2.3,2.5s2.3-0.9,2.3-2.5c0-1.1-0.4-2-1.7-3.1c-1-0.9-1.3-1.4-1.3-2.2c0-0.7,0.3-1,0.8-1   s0.8,0.3,0.8,1V86h1.5v-0.3c0-1.6-0.8-2.5-2.3-2.5c-1.5,0-2.3,0.9-2.3,2.5c0,1.1,0.4,2,1.7,3.1c1,0.9,1.3,1.4,1.3,2.2   c0,0.7-0.3,1-0.8,1c-0.5,0-0.8-0.3-0.8-1v-0.7H53.5z"/><path  fill="#000" d="M58.8,90.3v0.6c0,1.6,0.8,2.5,2.3,2.5s2.3-0.9,2.3-2.5c0-1.1-0.4-2-1.7-3.1c-1-0.9-1.3-1.4-1.3-2.2c0-0.7,0.3-1,0.8-1   c0.5,0,0.8,0.3,0.8,1V86h1.5v-0.3c0-1.6-0.8-2.5-2.3-2.5c-1.5,0-2.3,0.9-2.3,2.5c0,1.1,0.4,2,1.7,3.1c1,0.9,1.3,1.4,1.3,2.2   c0,0.7-0.3,1-0.8,1s-0.8-0.3-0.8-1v-0.7H58.8z"/><path  fill="#000" d="M64.4,83.3v10H66v-3.8h0.7c1.6,0,2.3-0.9,2.3-2.5v-1.3c0-1.6-0.8-2.5-2.3-2.5H64.4z M67.5,85.7v1.5c0,0.7-0.3,0.9-0.8,0.9   H66v-3.4h0.7C67.3,84.7,67.5,84.9,67.5,85.7z"/><path  fill="#000" d="M69.7,85.7v5.2c0,1.6,0.8,2.5,2.4,2.5s2.4-0.9,2.4-2.5v-5.2c0-1.6-0.8-2.5-2.4-2.5S69.7,84.1,69.7,85.7z M72.9,85.6V91   c0,0.7-0.3,1-0.8,1c-0.5,0-0.8-0.3-0.8-1v-5.4c0-0.7,0.3-1,0.8-1C72.6,84.6,72.9,84.9,72.9,85.6z"/><path  fill="#000" d="M78.8,93.3h1.6c-0.2-0.4-0.2-0.7-0.2-1.2v-1.5c0-1-0.3-1.8-1-2.1v0c0.7-0.3,1-1,1-2v-0.8c0-1.5-0.7-2.3-2.3-2.3h-2.4v10   h1.6v-4.1h0.5c0.7,0,1,0.3,1,1.3v1.6C78.7,92.9,78.7,93,78.8,93.3z M78.7,86.7c0,0.8-0.4,1.1-0.9,1.1h-0.6v-3.1h0.8   c0.6,0,0.8,0.3,0.8,1V86.7z" /><polygon points="84,93.3 84,84.7 85.7,84.7 85.7,83.3 80.8,83.3 80.8,84.7 82.5,84.7 82.5,93.3  "  fill="#000"/></g></svg>