<?xml version="1.0" ?><!DOCTYPE svg  PUBLIC '-//W3C//DTD SVG 1.1//EN'  'http://www.w3.org/Graphics/SVG/1.1/DTD/svg11.dtd'>

<svg id="Layer_1" style="enable-background:new 0 0 256 256;" version="1.1" viewBox="0 0 256 256" xml:space="preserve" xmlns="http://www.w3.org/2000/svg" xmlns:xlink="http://www.w3.org/1999/xlink"><g><path d="M105.2,124.8C105.2,124.8,105.2,124.8,105.2,124.8c-5-3.3-11.8-2.1-15.5,2.6l-18,23.4c-5.2,6-9.9,9.3-13.8,9.6   c-2.1,0.1-4.1-0.7-6-2.5c-2.9-2.7-4.6-6.6-4.6-10.9v-39.7c0-2.1-1.4-4-3.4-4.6c-2-0.6-4.2,0.1-5.4,1.9L8.9,148.4   c-2.4,3.6-3.3,8.1-2.4,12.4l12.6,60.6v4.4c0,2.7,2.2,4.8,4.8,4.8h63.6c2.5,0,4.6-1.9,4.8-4.4l2.5-28c1.2-13.4,4.4-26.5,9.4-38.8   c0.8-2,1.6-4,2.4-5.9c1.7-4.1,3.3-7.9,4.5-11C113.6,136,111.1,128.7,105.2,124.8z M102.1,139.2c-1.1,3.1-2.7,6.7-4.3,10.6   c-0.8,1.9-1.6,3.9-2.5,5.9c-5.4,13.2-8.8,27.2-10.1,41.6l-2.1,23.6H28.8v-0.1c0-0.3,0-0.7-0.1-1l-12.7-61.1c-0.4-1.7,0-3.5,1-5   l20.8-30.7v23.9c0,6.9,2.8,13.5,7.7,18c3.9,3.6,8.4,5.3,13.1,5c6.7-0.4,13.6-4.8,20.8-13.1l18.2-23.6c0.6-0.8,1.7-0.9,2.5-0.4l0,0   C102,134.3,102.9,136.9,102.1,139.2z" fill="#000"/><path fill="#000" d="M230.6,25.4H57c-10.6,0-19.3,8.6-19.3,19.2v44.5c0,2.7,2.2,4.8,4.8,4.8c2.7,0,4.8-2.2,4.8-4.8V44.6c0-5.3,4.3-9.6,9.6-9.6   h173.6c5.3,0,9.6,4.3,9.6,9.6v107.6c0,5.3-4.3,9.6-9.6,9.6H116.7c-2.7,0-4.8,2.2-4.8,4.8s2.2,4.8,4.8,4.8h113.9   c10.6,0,19.3-8.6,19.3-19.2V44.6C249.9,34,241.2,25.4,230.6,25.4z"/><path d="M166.1,86.4c-19-3.5-35.6,11.3-35.6,29.7c0,16.6,13.5,30.2,30.2,30.2c1.8,0,3.6-0.2,5.4-0.5c2.6-0.5,4.4-3,3.9-5.6   c-0.5-2.6-3-4.4-5.6-3.9c-1.2,0.2-2.5,0.3-3.7,0.3c-11.3,0-20.5-9.2-20.5-20.5c0-11.3,9.2-20.5,20.5-20.5c1.2,0,2.4,0.1,3.7,0.3   c2.6,0.5,5.2-1.3,5.6-3.9C170.4,89.4,168.7,86.9,166.1,86.4z"  /><path d="M197.5,146.2c16.6,0,30.2-13.5,30.2-30.2c0-16.6-13.5-30.2-30.2-30.2s-30.2,13.5-30.2,30.2   C167.3,132.7,180.8,146.2,197.5,146.2z M197.5,95.6c11.3,0,20.5,9.2,20.5,20.5c0,11.3-9.2,20.5-20.5,20.5   c-11.3,0-20.5-9.2-20.5-20.5C177,104.8,186.2,95.6,197.5,95.6z" /></g></svg>