<?xml version="1.0" encoding="UTF-8"?>
<svg width="100pt" height="100pt" version="1.1" viewBox="0 0 100 100" xmlns="http://www.w3.org/2000/svg">
 <g>
  <path d="m79.168 45.832c0.003906-1.4922-0.25781-2.9727-0.77344-4.375-0.72266-1.8984-1.8867-3.5977-3.3945-4.957-0.16406-1.9766-0.78516-3.8867-1.8125-5.582-1.1641-1.8359-2.7773-3.3398-4.6875-4.375-0.35156-1.6875-1.0625-3.2773-2.082-4.668-2.3516-3.2734-6.1367-5.2109-10.168-5.207h-4.168v-6.25c0-1.1523-0.92969-2.0859-2.082-2.0859s-2.082 0.93359-2.082 2.0859v6.25h-4.168c-4.0039 0.007812-7.7617 1.9375-10.105 5.1875-1.0273 1.3828-1.7383 2.9766-2.082 4.6641-3.7578 1.9766-6.2383 5.7461-6.5625 9.9805-1.5234 1.3438-2.6953 3.0391-3.418 4.9375-0.52344 1.4062-0.77734 2.8945-0.75 4.3945-0.39844 0.28906-0.77344 0.60938-1.125 0.96094-2.1367 2.1367-3.2422 5.0938-3.0234 8.1094 0.21484 3.0156 1.7305 5.7891 4.1484 7.5977-0.003906 1.4961 0.26953 2.9805 0.8125 4.375 1.3008 3.5 4.1094 6.2227 7.6484 7.418 1.1641 1.6719 2.5664 3.168 4.1641 4.4375 3.8633 3.0234 8.6367 4.6445 13.543 4.6016h6c7.0586 0.058594 13.707-3.3125 17.832-9.0391 3.5078-1.1914 6.3008-3.8906 7.6055-7.3555 0.52734-1.418 0.77344-2.9258 0.73047-4.4375 0.39844-0.28906 0.77344-0.60938 1.125-0.95703 2.1367-2.1367 3.2422-5.0977 3.0234-8.1133-0.21484-3.0156-1.7305-5.7852-4.1484-7.5977zm-53.75-1.957h-0.1875c0.082031-0.33984 0.1875-0.67188 0.3125-1 0.55859-1.4883 1.5273-2.7852 2.7891-3.75 1.4492-1.0664 3.2031-1.6367 5-1.625h33.336c0.51562 0.007812 1.0312 0.054688 1.5391 0.14453 1.2578 0.22656 2.4453 0.75 3.4609 1.5234 1.2617 0.96875 2.2344 2.2656 2.8125 3.75 0.12109 0.32422 0.22656 0.66016 0.3125 1h-0.21094c-0.55078-0.097657-1.1055-0.15625-1.6641-0.16797h-45.836c-0.55859 0.007812-1.1133 0.054688-1.6641 0.14453zm11.605-19.582h-0.003907c1.5469-2.1797 4.0586-3.4727 6.7305-3.4609h12.5c2.6758-0.003906 5.1875 1.293 6.7305 3.4805 0.16797 0.21875 0.32031 0.44922 0.45703 0.6875h-26.918c0.15234-0.24219 0.31641-0.47266 0.5-0.6875zm-6.6055 8.832c0.90625-1.4531 2.2266-2.6055 3.7891-3.3125 1.0469-0.42188 2.1641-0.64062 3.293-0.64453h25c1.1211 0 2.2305 0.21875 3.2695 0.64453 1.5781 0.69531 2.9062 1.8477 3.8125 3.3125 0.13281 0.20703 0.25 0.42578 0.35547 0.64453-0.27344-0.074219-0.55078-0.12891-0.83203-0.16406-0.1875-0.054688-0.375-0.09375-0.5625-0.125-0.62109-0.089844-1.25-0.14062-1.875-0.14844h-33.336c-0.625 0.007813-1.2539 0.058594-1.875 0.14844l-0.5625 0.10547c-0.26953 0-0.5625 0.10547-0.83203 0.1875v-0.003907c0.10547-0.21875 0.22266-0.4375 0.35547-0.64453zm-4.9805 31.25c0.54297 0.11328 1.0938 0.17969 1.6445 0.20703h10.586c0.007812 0.0625 0.007812 0.125 0 0.1875 0 0.3125 0.14453 0.625 0.23047 0.91797 0.082031 0.29297 0 0.3125 0.10547 0.48047l0.25 0.6875h-0.003906c0.070312 0.22656 0.15234 0.44922 0.25 0.66406 0.21094 0.50391 0.47266 0.98438 0.76953 1.4375 0.16797 0.30469 0.35547 0.59766 0.5625 0.875l0.29297 0.375s0.1875 0.23047 0.29297 0.35547l0.23047 0.26953h-7.3164c-0.75391 0.003907-1.5039-0.10156-2.2266-0.3125-2.5508-0.74219-4.5938-2.6523-5.5-5.1445-0.12891-0.30469-0.23438-0.61719-0.3125-0.9375zm29.293 4.8945h-0.125c-0.88672 0.59375-1.875 1.0117-2.918 1.2305-1.1016 0.22266-2.2344 0.22266-3.332 0-0.51562-0.11719-1.0156-0.27734-1.5-0.48047h-0.125c-0.45703-0.20312-0.89453-0.4375-1.3125-0.70703-0.035157-0.007812-0.070313-0.007812-0.10547 0-1.7695-1.2148-3-3.0664-3.4375-5.168-0.11719-0.53906-0.1875-1.0898-0.20703-1.6445-0.011719-2.9219 1.5078-5.6328 4.0039-7.1484 2.4961-1.5195 5.6016-1.6172 8.1914-0.26172 2.5859 1.3516 4.2773 3.9609 4.4531 6.875 0.17969 2.918-1.1836 5.7109-3.5859 7.3672zm9.1875 6.1055c-3.1133 2.4531-6.957 3.7891-10.918 3.793h-6c-3.9531 0.011719-7.7969-1.3008-10.918-3.7305l-0.53906-0.4375h28.914zm10.418-10h-0.003907c-0.9375 2.4844-3.0039 4.3711-5.5625 5.082-0.67969 0.22656-1.3867 0.35156-2.1016 0.375h-7.3555l0.1875-0.23047c0.16797-0.1875 0.3125-0.39453 0.48047-0.60547l0.25-0.3125v0.003906c0.13672-0.18359 0.26172-0.37891 0.375-0.58203 0.039062-0.0625 0.074219-0.125 0.10156-0.1875 0.21484-0.34375 0.40234-0.69531 0.5625-1.0625 0-0.125 0.14453-0.23047 0.20703-0.375h0.003907c0.11719-0.26953 0.21484-0.55078 0.28906-0.83594 0.070313-0.15234 0.125-0.3125 0.16797-0.47656 0.0625-0.17969 0.10938-0.35938 0.14453-0.54297 0.082031-0.27344 0.14453-0.55078 0.1875-0.83203v-0.20703l10.648-0.003907c0.55078-0.003906 1.1016-0.054687 1.6445-0.14453h0.20703c-0.082031 0.34375-0.19531 0.67578-0.33203 1zm2.9375-6.875h-0.003907c-0.39844 0.39062-0.84766 0.72656-1.332 1-0.91016 0.55859-1.9531 0.875-3.0195 0.91797h-10.586c-0.011719-0.050781-0.011719-0.097657 0-0.14844-0.11328-0.62109-0.27344-1.2344-0.47656-1.832l-0.125-0.33203c-0.21875-0.58984-0.48438-1.1641-0.79297-1.7109l-0.1875-0.14453c-0.33203-0.5625-0.70703-1.1016-1.125-1.6055-0.42188-0.5-0.87891-0.96484-1.375-1.3945l-0.16797-0.14453c-0.48047-0.41016-0.99609-0.78125-1.5391-1.1055l-0.29297-0.3125c-0.54688-0.32422-1.1172-0.60156-1.707-0.83203l-0.375-0.10547c-0.60938-0.22266-1.2383-0.39844-1.875-0.51953h-0.25c-1.3789-0.24609-2.7891-0.24609-4.168 0h-0.25c-0.63672 0.12109-1.2656 0.29688-1.875 0.51953l-0.29297 0.10547c-0.58984 0.23047-1.1602 0.50781-1.707 0.83203l-0.26953 0.16797c-0.54297 0.32422-1.0586 0.69141-1.543 1.1016l-0.16797 0.14453v0.003907c-0.49219 0.42578-0.95312 0.89453-1.375 1.3945-0.41406 0.50391-0.79297 1.0391-1.125 1.6055l-0.14453 0.23047v-0.003907c-0.30469 0.55859-0.57031 1.1367-0.79297 1.7305l-0.125 0.33203c-0.20312 0.60156-0.36328 1.2109-0.47656 1.8359 0.011719 0.046875 0.011719 0.097656 0 0.14453h-10.648c-3.4492 0-6.25-2.7969-6.25-6.25-0.003906-1.6445 0.64062-3.2227 1.793-4.3945 0.39844-0.39062 0.84766-0.72656 1.332-1 0.95312-0.54297 2.0312-0.82031 3.125-0.8125h45.836c3.4492 0 6.25 2.7969 6.25 6.25 0.003906 1.6445-0.64062 3.2227-1.793 4.3945z"/>
  <path d="m26.043 77.082c-2.8789 0-5.2109 2.332-5.2109 5.2109v1.0391h-2.082c-1.1523 0-2.082 0.93359-2.082 2.0859 0 1.1484 0.92969 2.082 2.082 2.082h2.1875c0.36719 2.5664 2.5625 4.4727 5.1562 4.4727s4.7891-1.9062 5.1562-4.4727h2.082c1.1523 0 2.0859-0.93359 2.0859-2.082 0-1.1523-0.93359-2.0859-2.0859-2.0859h-2.082v-1.043 0.003907c0-1.3828-0.54688-2.707-1.5273-3.6836-0.97656-0.97656-2.3008-1.5273-3.6797-1.5273zm1.043 9.375h-0.003907c0 0.57812-0.46484 1.043-1.0391 1.043-0.57812 0-1.043-0.46484-1.043-1.043v-4.168 0.003907c0-0.57812 0.46484-1.043 1.043-1.043 0.57422 0 1.0391 0.46484 1.0391 1.043z"/>
  <path d="m79.168 12.605v-2.1875c0-1.1523-0.93359-2.0859-2.0859-2.0859-1.1484 0-2.082 0.93359-2.082 2.0859v2.082h-1.043c-2.875 0-5.207 2.332-5.207 5.207 0 2.8789 2.332 5.2109 5.207 5.2109h1.043v2.082c0 1.1523 0.93359 2.082 2.082 2.082 1.1523 0 2.0859-0.92969 2.0859-2.082v-2.082c2.4258-0.49609 4.1719-2.6289 4.1719-5.1055s-1.7461-4.6094-4.1719-5.1055zm-1.043 6.25h-4.168c-0.57422 0-1.0391-0.46875-1.0391-1.043s0.46484-1.043 1.0391-1.043h4.168c0.57422 0 1.043 0.46875 1.043 1.043s-0.46875 1.043-1.043 1.043z"/>
 </g>
</svg>
