<?xml version="1.0" encoding="UTF-8"?>
<svg width="25" height="25" version="1.1" viewBox="0 0 128 128" xmlns="http://www.w3.org/2000/svg">
 <path d="m64 121.6c31.812 0 57.602-25.789 57.602-57.602s-25.789-57.602-57.602-57.602-57.602 25.789-57.602 57.602 25.789 57.602 57.602 57.602zm3.1992-95.043c5.3047 0 9.6016 4.2969 9.6016 9.6016 0 5.3008-4.2969 9.6016-9.6016 9.6016-5.3047 0-9.6016-4.2969-9.6016-9.6016 0.003906-5.3008 4.3008-9.6016 9.6016-9.6016zm-3.1992 23.68c9.6016 0 11.93 5.6641 10.852 12.652l-4.4531 28.949s3.1992 0 9.6016-3.1992c0 0-3.1992 12.801-16 12.801-9.6016 0-11.93-5.6641-10.852-12.652l4.4531-28.949s-3.1992 0-9.6016 3.1992c0 0 3.1992-12.801 16-12.801z"/>
</svg>
