<?xml version="1.0" encoding="UTF-8"?>
<svg width="30" height="31" version="1.1" viewBox="0 0 700 700" xmlns="http://www.w3.org/2000/svg">
 <path d="m350 17.5c-144.73 0-262.5 117.77-262.5 262.5s117.77 262.5 262.5 262.5 262.5-117.77 262.5-262.5-117.77-262.5-262.5-262.5zm157.32 393.05c-12.25 22.051-35.352 35.699-60.551 35.699-11.727 0-23.273-2.9766-33.602-8.75l-22.574-12.426c-78.051-43.398-142.27-107.62-185.68-185.68l-12.422-22.574c-8.9258-16.098-11.199-34.824-6.125-52.676 5.0742-17.852 16.801-32.551 33.074-41.477l3.6758-2.1016c8.0508-4.5508 17.148-6.8242 26.25-6.8242 19.602 0 37.801 10.676 47.426 27.824l17.148 30.977c10.324 18.551 4.1992 41.648-14 52.5l-21.352 12.773c25.727 47.949 65.625 87.852 113.57 113.57l12.773-21.352c10.5-17.324 34.648-23.977 52.5-14l30.977 17.148c12.602 7.1758 21.703 18.551 25.727 32.551 4.0234 13.824 2.2734 28.523-4.7266 41.125z"/>
</svg>
