<?xml version="1.0" encoding="UTF-8"?>
<svg width="26" height="26" version="1.1" viewBox="0 0 128 128" xmlns="http://www.w3.org/2000/svg">
 <g>
  <path d="m74.047 53.762c0 5.5469-4.4961 10.047-10.047 10.047s-10.047-4.5-10.047-10.047c0-5.5508 4.4961-10.051 10.047-10.051s10.047 4.5 10.047 10.051"/>
  <path d="m64 6.3984c-15.277 0-29.926 6.0703-40.73 16.871-10.801 10.805-16.871 25.453-16.871 40.73s6.0703 29.926 16.871 40.73c10.805 10.801 25.453 16.871 40.73 16.871s29.926-6.0703 40.73-16.871c10.801-10.805 16.871-25.453 16.871-40.73s-6.0703-29.926-16.871-40.73c-10.805-10.801-25.453-16.871-40.73-16.871zm0 91.621c0 0.003907-23.781-31.125-23.781-44.258 0-8.5 4.5312-16.348 11.891-20.598s16.422-4.25 23.781 0 11.891 12.098 11.891 20.598c0 13.133-23.781 44.262-23.781 44.262z"/>
 </g>
</svg>
