<?xml version="1.0" encoding="UTF-8"?>
<svg xmlns="http://www.w3.org/2000/svg"
    xmlns:xlink="http://www.w3.org/1999/xlink" x="0px" y="0px" viewBox="0 0 400 400" version="1.1" style="enable-background:new 0 0 400 400;" xml:space="preserve">
    <style type="text/css">
	.st0{fill:#000000;}
    </style>
    <g>
        <path class="st0" d="M 49.53125 28.4375 C 44.765625 30.546875 44.53125 31.5625 44.53125 48.203125 L 44.53125 63.28125 L 4.765625 63.28125 L 0.390625 67.03125 L 0.15625 89.921875 C 0 106.25 0.234375 113.4375 0.859375 115 C 2.34375 118.671875 5.078125 119.53125 14.84375 119.53125 L 23.4375 119.53125 L 23.4375 315.46875 L 13.984375 315.78125 L 4.53125 316.015625 L 2.265625 318.59375 L 0 321.09375 L 0 344.0625 C 0 365.9375 0.078125 367.03125 1.5625 368.984375 C 2.5 370.15625 4.53125 371.40625 6.09375 371.875 C 10.078125 372.96875 389.84375 372.96875 393.828125 371.875 C 399.6875 370.234375 399.609375 370.625 399.84375 344.53125 L 400.078125 321.171875 L 397.734375 318.59375 L 395.46875 316.015625 L 386.015625 315.78125 L 376.5625 315.46875 L 376.5625 119.53125 L 385.15625 119.53125 C 394.921875 119.53125 397.65625 118.671875 399.140625 115 C 399.765625 113.4375 400 106.25 399.84375 89.921875 L 399.609375 67.03125 L 395.234375 63.28125 L 355.46875 63.28125 L 355.46875 48.203125 C 355.46875 35.546875 355.234375 32.890625 354.21875 31.328125 C 351.484375 27.421875 350.546875 27.34375 309.21875 27.34375 C 284.84375 27.34375 269.609375 27.65625 267.734375 28.203125 C 262.578125 29.609375 262.109375 31.09375 261.875 48.203125 L 261.5625 63.28125 L 246.953125 63.28125 C 232.5 63.28125 232.1875 63.28125 230.234375 65.15625 C 226.25 68.828125 226.71875 74.0625 231.25 77.109375 L 233.828125 78.90625 L 384.375 78.90625 L 384.375 103.90625 L 15.625 103.90625 L 15.625 78.90625 L 166.171875 78.90625 L 168.75 77.109375 C 173.28125 74.0625 173.75 68.828125 169.765625 65.15625 C 167.8125 63.28125 167.5 63.28125 153.046875 63.28125 L 138.4375 63.28125 L 138.125 48.203125 C 137.890625 31.09375 137.421875 29.609375 132.265625 28.203125 C 127.5 26.875 52.578125 27.109375 49.53125 28.4375 Z M 122.265625 53.125 L 122.265625 62.890625 L 91.25 63.125 L 60.15625 63.28125 L 60.15625 42.96875 L 91.25 43.125 L 122.265625 43.359375 Z M 339.84375 53.125 L 339.84375 63.28125 L 308.828125 63.125 L 277.734375 62.890625 L 277.5 53.984375 C 277.421875 49.0625 277.5 44.53125 277.65625 43.984375 C 277.96875 43.203125 284.21875 42.96875 308.984375 42.96875 L 339.84375 42.96875 Z M 360.9375 217.578125 L 360.9375 315.625 L 39.0625 315.625 L 39.0625 119.53125 L 360.9375 119.53125 Z M 384.375 344.140625 L 384.375 357.03125 L 15.625 357.03125 L 15.625 331.25 L 384.375 331.25 Z M 384.375 344.140625 "/>
        <path class="st0" d="M 202.03125 137.65625 C 199.921875 139.609375 148.671875 226.40625 147.96875 229.453125 C 147.34375 231.875 148.90625 235.546875 151.25 237.109375 C 152.734375 238.046875 155.9375 238.28125 169.140625 238.28125 L 185.15625 238.28125 L 185.15625 265.15625 C 185.15625 282.265625 185.46875 292.8125 186.015625 294.375 C 187.8125 299.453125 194.296875 300.9375 198.28125 297.03125 C 199.53125 295.859375 212.109375 275.234375 226.25 251.171875 C 254.6875 202.578125 254.296875 203.515625 249.375 199.140625 L 246.875 196.875 L 214.921875 196.875 L 214.453125 140.46875 L 211.875 138.203125 C 208.671875 135.390625 204.84375 135.15625 202.03125 137.65625 Z M 199.84375 209.140625 C 199.921875 209.296875 200.9375 210 202.109375 210.703125 C 203.828125 211.875 206.5625 212.1875 217.34375 212.5 L 230.46875 212.890625 L 215.78125 237.8125 L 201.171875 262.734375 L 201.015625 245.625 C 200.78125 227.8125 200.390625 225.78125 197.265625 223.984375 C 196.328125 223.4375 190.46875 222.890625 182.65625 222.65625 L 169.6875 222.265625 L 182.265625 200.78125 C 189.21875 188.90625 195.78125 177.890625 196.875 176.171875 L 198.828125 173.046875 L 199.21875 191.015625 C 199.453125 200.859375 199.765625 209.0625 199.84375 209.140625 Z M 199.84375 209.140625 "/>
        <path class="st0" d="M 303.75 196.015625 C 301.40625 198.125 301.171875 198.671875 300.9375 204.21875 L 300.625 210.15625 L 295.15625 210.15625 C 290.15625 210.15625 289.53125 210.390625 287.421875 212.421875 C 283.359375 216.5625 284.84375 222.96875 290.390625 225.078125 C 291.40625 225.46875 294.21875 225.78125 296.5625 225.78125 L 300.78125 225.78125 L 300.78125 230.15625 C 300.78125 237.65625 303.671875 241.40625 309.453125 241.40625 C 311.015625 241.40625 312.578125 240.625 314.140625 239.140625 C 316.171875 237.03125 316.40625 236.40625 316.40625 231.40625 L 316.40625 225.9375 L 321.875 225.625 C 325.78125 225.46875 327.890625 224.921875 329.453125 223.75 C 333.203125 220.9375 333.671875 216.328125 330.546875 212.421875 C 329.296875 210.78125 328.203125 210.46875 322.890625 210.15625 L 316.796875 209.765625 L 316.5625 205.078125 C 316.328125 198.203125 315.859375 197.03125 313.046875 195.3125 C 309.53125 193.125 306.71875 193.359375 303.75 196.015625 Z M 303.75 196.015625 "/>
        <path class="st0" d="M 69.921875 212.03125 C 66.25 215.703125 66.5625 220.78125 70.625 223.75 C 72.578125 225.234375 74.0625 225.390625 89.296875 225.625 C 98.4375 225.78125 106.953125 225.703125 108.28125 225.390625 C 114.609375 224.21875 117.03125 216.875 112.578125 212.421875 L 110.3125 210.15625 L 71.796875 210.15625 Z M 69.921875 212.03125 "/>
        <path class="st0" d="M 195.078125 65.15625 C 191.09375 68.90625 191.5625 74.0625 196.171875 77.1875 C 199.53125 79.53125 202.734375 79.0625 205.703125 75.78125 C 207.1875 74.140625 207.8125 72.578125 207.8125 70.625 C 207.8125 64.296875 199.6875 60.859375 195.078125 65.15625 Z M 195.078125 65.15625 "/>
    </g>
</svg>
