<?xml version="1.0" encoding="UTF-8"?>
<svg xmlns="http://www.w3.org/2000/svg"
    xmlns:xlink="http://www.w3.org/1999/xlink" x="0px" y="0px" viewBox="0 0 400 400" version="1.1" style="enable-background:new 0 0 400 400;" xml:space="preserve">
    <style type="text/css">
	.st0{fill:#000000;}
    </style>
    <g id="surface1">
        <path class="st0" d="M 185.15625 0.46875 C 172.421875 1.953125 162.34375 3.59375 154.921875 5.546875 C 129.609375 12.03125 109.765625 23.59375 99.609375 37.890625 C 95.15625 44.140625 93.203125 48.75 91.796875 56.5625 C 91.171875 60 88.59375 69.21875 85.9375 76.953125 L 81.25 90.9375 L 81.25 214.6875 C 81.25 325.078125 81.40625 338.984375 82.5 343.28125 C 91.25 377.265625 145.9375 402.03125 207.421875 399.6875 C 249.0625 398.125 284.140625 385.78125 303.90625 365.625 C 310.234375 359.140625 313.90625 353.671875 316.640625 346.40625 L 318.359375 341.796875 L 318.59375 216.40625 L 318.75 91.015625 L 314.0625 76.953125 C 311.40625 69.21875 308.828125 60 308.203125 56.5625 C 306.796875 48.75 304.84375 44.140625 300.390625 37.890625 C 287.890625 20.3125 260.859375 7.03125 227.34375 1.953125 C 219.609375 0.78125 191.171875 -0.234375 185.15625 0.46875 Z M 220.3125 12.109375 C 237.8125 14.140625 251.71875 17.8125 264.6875 23.90625 C 274.6875 28.515625 281.71875 33.359375 287.65625 39.765625 C 293.828125 46.25 296.953125 52.421875 297.5 59.0625 C 297.8125 63.75 296.5625 71.484375 295.3125 72.265625 C 294.921875 72.5 294.84375 71.953125 295.078125 71.171875 C 295.859375 68.125 293.75 58.90625 291.015625 53.359375 C 279.84375 30.78125 242.1875 14.84375 200 14.84375 C 157.8125 14.84375 120.078125 30.78125 109.0625 53.28125 C 106.171875 59.21875 104.296875 66.640625 104.84375 70.390625 C 105.390625 73.984375 104.140625 72.1875 103.125 67.890625 C 100.78125 58.125 103.828125 48.671875 112.34375 39.765625 C 125.703125 25.546875 149.53125 15.625 178.828125 12.109375 C 190.234375 10.703125 208.671875 10.703125 220.3125 12.109375 Z M 226.5625 27.96875 C 231.5625 28.90625 239.296875 30.78125 243.828125 32.265625 C 280.9375 44.453125 294.21875 67.5 275.625 87.1875 C 244.609375 120.078125 155.390625 120.078125 124.375 87.1875 C 101.40625 62.8125 127.65625 34.375 180.078125 26.953125 C 191.25 25.390625 214.765625 25.859375 226.5625 27.96875 Z M 106.71875 93.046875 C 122.1875 107.890625 148.90625 118.515625 179.296875 121.875 C 188.359375 122.890625 211.640625 122.890625 220.703125 121.875 C 243.984375 119.296875 266.640625 111.953125 282.109375 101.953125 C 288.90625 97.578125 297.578125 89.453125 301.171875 84.140625 L 303.75 80.3125 L 305.46875 85.46875 L 307.109375 90.546875 L 305.546875 94.140625 C 304.6875 96.09375 302.578125 99.765625 300.78125 102.1875 C 297.1875 107.34375 297.03125 108.359375 299.296875 111.25 C 301.015625 113.4375 303.671875 113.90625 306.328125 112.5 C 307.8125 111.640625 307.8125 113.046875 307.8125 214.296875 C 307.8125 329.84375 308.28125 320.625 301.5625 330.703125 C 299.375 333.90625 297.65625 337.03125 297.65625 337.734375 C 297.65625 338.359375 298.4375 339.84375 299.296875 341.015625 C 300.703125 342.734375 301.484375 343.046875 303.59375 342.8125 C 305.15625 342.65625 306.25 342.8125 306.25 343.359375 C 306.25 345.546875 299.84375 354.609375 295 359.140625 C 266.796875 385.78125 207.578125 396.25 155.078125 383.90625 C 128.046875 377.5 105.703125 364.140625 96.5625 348.90625 C 95 346.328125 93.75 343.90625 93.75 343.515625 C 93.75 343.125 95.9375 344.84375 98.671875 347.265625 C 114.921875 362.109375 139.609375 372.265625 171.09375 377.109375 C 182.265625 378.828125 215.234375 379.0625 226.171875 377.5 C 246.015625 374.6875 264.765625 369.296875 278.046875 362.65625 C 287.96875 357.734375 290.234375 354.375 286.25 350.390625 C 284.296875 348.4375 281.09375 349.0625 273.75 352.65625 C 261.640625 358.671875 245.859375 363.4375 229.296875 366.09375 C 218.515625 367.734375 192.421875 368.4375 180.78125 367.265625 C 139.375 363.125 105.703125 346.5625 95.234375 325.3125 L 92.578125 319.921875 L 92.34375 215.78125 L 92.1875 111.5625 L 97.8125 116.796875 C 114.53125 132.265625 138.828125 142.421875 171.09375 147.421875 C 182.1875 149.140625 216.953125 149.375 226.953125 147.8125 C 247.734375 144.53125 265.15625 139.453125 278.046875 132.96875 C 287.96875 128.046875 290.234375 124.6875 286.25 120.703125 C 284.296875 118.75 281.09375 119.375 273.75 122.96875 C 261.40625 129.140625 246.5625 133.59375 229.296875 136.328125 C 218.515625 138.046875 192.421875 138.75 180.78125 137.578125 C 139.609375 133.4375 105.703125 116.875 95.3125 95.859375 L 92.8125 90.703125 L 94.53125 85.546875 L 96.25 80.3125 L 98.828125 84.140625 C 100.234375 86.171875 103.828125 90.234375 106.71875 93.046875 Z M 106.71875 93.046875 "/>
        <path class="st0" d="M 207.421875 46.015625 C 189.53125 50.390625 183.515625 72.96875 196.875 85.46875 C 201.015625 89.296875 204.453125 91.015625 209.53125 91.796875 C 213.046875 92.34375 255.625 86.71875 260.859375 85 C 262.34375 84.53125 265.078125 82.734375 266.953125 81.015625 C 273.828125 74.6875 274.21875 64.765625 267.890625 57.578125 C 266.09375 55.46875 263.515625 53.515625 261.484375 52.8125 C 258.203125 51.5625 215.625 45.234375 211.796875 45.390625 C 210.703125 45.46875 208.75 45.703125 207.421875 46.015625 Z M 234.84375 59.375 C 246.796875 61.09375 257.265625 62.734375 258.046875 62.96875 C 258.75 63.203125 259.921875 64.453125 260.625 65.703125 C 262.109375 68.671875 261.40625 72.265625 259.0625 73.90625 C 257.96875 74.609375 248.125 76.328125 234.0625 78.359375 L 210.859375 81.640625 L 207.1875 79.6875 C 200.3125 76.09375 198.359375 68.515625 202.5 61.875 C 204.0625 59.296875 209.0625 56.328125 211.796875 56.25 C 212.5 56.25 222.890625 57.65625 234.84375 59.375 Z M 234.84375 59.375 "/>
        <path class="st0" d="M 218.75 60.15625 C 217.421875 61.484375 217.1875 62.734375 217.1875 68.75 C 217.1875 74.765625 217.421875 76.015625 218.75 77.34375 C 220.703125 79.296875 223.515625 79.375 225.859375 77.421875 C 227.578125 76.015625 227.734375 75.3125 227.734375 68.75 C 227.734375 62.1875 227.578125 61.484375 225.859375 60.078125 C 223.515625 58.125 220.703125 58.203125 218.75 60.15625 Z M 218.75 60.15625 "/>
    </g>
</svg>
