<?xml version="1.0" encoding="UTF-8"?>
<svg xmlns="http://www.w3.org/2000/svg"
    xmlns:xlink="http://www.w3.org/1999/xlink" x="0px" y="0px" viewBox="0 0 400 400" version="1.1" style="enable-background:new 0 0 400 400;" xml:space="preserve">
    <style type="text/css">
	.st0{fill:#000000;}
    </style><g id="surface1">
<path class="st0" d="M 129.398438 31.398438 C 128.601562 32 128 37.398438 128 43 C 128 52.800781 127 54.601562 108 82.199219 L 88 111 L 88.398438 240 L 89 369 L 311 369 L 311.601562 240 L 312 111 L 291 81.601562 C 270.398438 52.800781 270 52.199219 270 41.199219 L 270 30 L 200.398438 30 C 162 30 130 30.601562 129.398438 31.398438 Z M 262 44 L 262 50 L 138 50 L 138 38 L 262 38 Z M 281.398438 83.601562 L 298 107 L 240.601562 107.601562 C 209 107.800781 182 107.601562 180.800781 107.199219 C 178.601562 106.398438 144 63 144 61 C 144 60.398438 171.199219 60 204.601562 60 L 265 60.199219 Z M 152.800781 87.601562 L 172 112.398438 L 172 362 L 98 362 L 98 116.199219 L 121.601562 115.601562 C 140.800781 115.199219 145 114.398438 145 112 C 145 109.601562 140.800781 108.800781 123.398438 108 L 101.800781 107 L 117.199219 84.601562 C 125.800781 72.199219 132.800781 62.199219 133 62.601562 C 133.199219 62.800781 142.199219 74 152.800781 87.601562 Z M 302 239 L 302 362 L 182 362 L 182 116 L 302 116 Z M 302 239 "/>
<path class="st0" d="M 233.800781 183.398438 C 230.398438 188.800781 224 200.601562 219.398438 210 C 208.800781 231.601562 207.398438 245.601562 214.398438 255.800781 C 224 270.199219 242.398438 274.800781 258.601562 267.199219 C 277.199219 258.199219 280.199219 239.800781 267.398438 213.199219 C 256.800781 190.800781 246.199219 174 242.800781 174 C 241.199219 174 237.199219 178.199219 233.800781 183.398438 Z M 258.398438 215.199219 C 268.199219 236.199219 268.601562 246.800781 260.199219 254.800781 C 245.398438 269 218 259.601562 218 240.199219 C 218 234.398438 225 217.398438 234.398438 200.398438 L 242.398438 185.601562 L 246.601562 192.398438 C 248.800781 196 254 206.398438 258.398438 215.199219 Z M 258.398438 215.199219 "/>
</g>
</svg>
