<?xml version="1.0" encoding="UTF-8"?>
<svg xmlns="http://www.w3.org/2000/svg"
    xmlns:xlink="http://www.w3.org/1999/xlink" x="0px" y="0px" viewBox="0 0 400 400" version="1.1" style="enable-background:new 0 0 400 400;" xml:space="preserve">
    <style type="text/css">
	.st0{fill:#000000;}
    </style><g id="surface1">
<path class="st0" d="M 396.707031 50.484375 C 396.46875 50.261719 349.484375 5.453125 349.484375 5.453125 C 347.6875 3.730469 345.832031 1.949219 342.363281 1.949219 L 153.207031 1.949219 C 147.679688 1.949219 143.1875 6.441406 143.1875 11.96875 L 143.1875 42.734375 L 76.519531 54.164062 C 71.175781 55.101562 67.582031 60.214844 68.507812 65.554688 L 71.890625 85.28125 C 50.21875 92.574219 27.972656 100.089844 6.496094 107.804688 C 1.421875 109.660156 -1.242188 115.304688 0.566406 120.410156 L 43.289062 239.171875 C 44.148438 241.5625 46.402344 243.050781 48.804688 243.050781 C 49.460938 243.050781 50.132812 242.9375 50.789062 242.703125 C 53.832031 241.605469 55.414062 238.25 54.316406 235.207031 L 12.226562 118.199219 C 32.460938 110.953125 53.417969 103.863281 73.894531 96.972656 L 94.027344 214.351562 L 117.195312 349.53125 C 118.03125 354.304688 122.226562 357.699219 126.960938 357.699219 C 127.496094 357.699219 128.042969 357.65625 128.585938 357.566406 L 191.332031 346.796875 L 240.363281 338.390625 L 166.621094 364.898438 L 108.46875 385.804688 L 63.308594 260.191406 C 62.210938 257.144531 58.855469 255.5625 55.8125 256.660156 C 52.765625 257.753906 51.183594 261.109375 52.28125 264.15625 L 98.082031 391.554688 C 99.546875 395.5625 103.34375 398.054688 107.355469 398.054688 C 108.464844 398.054688 109.589844 397.863281 110.6875 397.460938 L 170.585938 375.925781 L 306.597656 327.039062 L 332.578125 322.585938 L 389.980469 322.585938 C 395.503906 322.585938 400 318.082031 400 312.542969 L 400 57.085938 C 400 53.578125 398.097656 51.789062 396.707031 50.484375 Z M 381.183594 51.871094 L 351.863281 51.871094 L 351.136719 51.875 C 349.734375 51.882812 346.445312 51.910156 345.613281 51.082031 C 345.421875 50.890625 345.195312 50.25 345.195312 49.0625 L 345.128906 17.488281 Z M 388.28125 310.867188 L 154.90625 310.867188 L 154.90625 196.671875 C 154.90625 193.4375 152.28125 190.8125 149.046875 190.8125 C 145.808594 190.8125 143.1875 193.4375 143.1875 196.671875 L 143.1875 312.542969 C 143.1875 318.078125 147.679688 322.585938 153.207031 322.585938 L 263.214844 322.585938 L 189.351562 335.246094 L 128.429688 345.699219 L 105.578125 212.367188 L 80.367188 65.390625 L 143.183594 54.625 L 143.183594 169.484375 C 143.183594 172.722656 145.808594 175.34375 149.042969 175.34375 C 152.28125 175.34375 154.902344 172.722656 154.902344 169.484375 L 154.902344 13.664062 L 333.398438 13.664062 L 333.476562 49.078125 C 333.476562 53.367188 334.78125 56.839844 337.355469 59.398438 C 341.3125 63.324219 346.902344 63.597656 350.375 63.597656 C 350.671875 63.597656 350.957031 63.59375 351.21875 63.59375 L 388.28125 63.589844 Z M 388.28125 310.867188 "/>
<path class="st0" d="M 183.148438 92.929688 C 183.148438 96.164062 185.773438 98.789062 189.007812 98.789062 L 356.535156 98.789062 C 359.773438 98.789062 362.394531 96.164062 362.394531 92.929688 C 362.394531 89.691406 359.773438 87.070312 356.535156 87.070312 L 189.007812 87.070312 C 185.773438 87.070312 183.148438 89.691406 183.148438 92.929688 Z M 183.148438 92.929688 "/>
<path class="st0" d="M 356.535156 128.695312 L 189.007812 128.695312 C 185.773438 128.695312 183.148438 131.320312 183.148438 134.554688 C 183.148438 137.792969 185.773438 140.414062 189.007812 140.414062 L 356.535156 140.414062 C 359.773438 140.414062 362.394531 137.792969 362.394531 134.554688 C 362.394531 131.320312 359.773438 128.695312 356.535156 128.695312 Z M 356.535156 128.695312 "/>
<path class="st0" d="M 356.535156 170.324219 L 189.007812 170.324219 C 185.773438 170.324219 183.148438 172.945312 183.148438 176.183594 C 183.148438 179.417969 185.773438 182.042969 189.007812 182.042969 L 356.535156 182.042969 C 359.773438 182.042969 362.394531 179.417969 362.394531 176.183594 C 362.394531 172.945312 359.773438 170.324219 356.535156 170.324219 Z M 356.535156 170.324219 "/>
<path class="st0" d="M 356.535156 211.949219 L 189.007812 211.949219 C 185.773438 211.949219 183.148438 214.574219 183.148438 217.808594 C 183.148438 221.042969 185.773438 223.667969 189.007812 223.667969 L 356.535156 223.667969 C 359.773438 223.667969 362.394531 221.042969 362.394531 217.808594 C 362.394531 214.574219 359.773438 211.949219 356.535156 211.949219 Z M 356.535156 211.949219 "/>
<path class="st0" d="M 356.535156 253.578125 L 189.007812 253.578125 C 185.773438 253.578125 183.148438 256.199219 183.148438 259.4375 C 183.148438 262.671875 185.773438 265.296875 189.007812 265.296875 L 356.535156 265.296875 C 359.773438 265.296875 362.394531 262.671875 362.394531 259.4375 C 362.394531 256.199219 359.773438 253.578125 356.535156 253.578125 Z M 356.535156 253.578125 "/>
</g>
</svg>
