<?xml version="1.0" encoding="UTF-8"?>
<svg xmlns="http://www.w3.org/2000/svg"
    xmlns:xlink="http://www.w3.org/1999/xlink" x="0px" y="0px" viewBox="0 0 400 400" version="1.1" style="enable-background:new 0 0 400 400;" xml:space="preserve">
    <style type="text/css">
	.st0{fill:#000000;}
    </style><g id="surface1">
<path class="st0" d="M 380 0 L 340 0 C 328.953125 0 320 8.953125 320 20 L 320 73.332031 C 320.007812 88.574219 309.65625 101.871094 294.878906 105.605469 C 292.140625 106.304688 289.257812 105.199219 287.6875 102.847656 L 283.464844 96.480469 C 279.773438 90.464844 273.257812 86.761719 266.199219 86.667969 L 227.132812 86.667969 C 220.457031 86.644531 214.214844 89.984375 210.527344 95.554688 L 205.648438 102.886719 C 204.074219 105.242188 201.183594 106.347656 198.441406 105.640625 C 183.65625 101.898438 173.308594 88.582031 173.332031 73.332031 L 173.332031 20 C 173.332031 8.953125 164.378906 0 153.332031 0 L 113.332031 0 C 102.289062 0 93.332031 8.953125 93.332031 20 L 93.332031 40 L 60 40 C 48.953125 40 40 48.953125 40 60 L 40 80 C 40 87.363281 45.96875 93.332031 53.332031 93.332031 L 53.332031 100 C 53.335938 101.824219 52.617188 103.574219 51.332031 104.867188 C 50.207031 106.015625 48.664062 106.664062 47.054688 106.667969 L 46.667969 106.667969 C 20.894531 106.667969 0 127.558594 0 153.332031 L 0 186.667969 C -0.00390625 191.589844 1.816406 196.339844 5.105469 200 C 1.816406 203.660156 -0.00390625 208.410156 0 213.332031 L 0 240 C -0.00390625 244.921875 1.816406 249.671875 5.105469 253.332031 C 1.816406 256.992188 -0.00390625 261.742188 0 266.667969 L 0 293.332031 C -0.00390625 298.257812 1.816406 303.007812 5.105469 306.667969 C 1.816406 310.328125 -0.00390625 315.078125 0 320 L 0 366.667969 C 0.0234375 385.066406 14.933594 399.976562 33.332031 400 L 353.332031 400 C 379.09375 399.96875 399.96875 379.09375 400 353.332031 L 400 20 C 400 8.953125 391.046875 0 380 0 Z M 53.332031 60 C 53.332031 56.316406 56.316406 53.332031 60 53.332031 L 113.332031 53.332031 C 117.015625 53.332031 120 56.316406 120 60 L 120 80 L 53.332031 80 Z M 13.332031 153.332031 C 13.304688 144.457031 16.847656 135.941406 23.160156 129.699219 C 29.46875 123.453125 37.996094 119.964844 46.875 120 C 52.066406 120.164062 57.085938 118.105469 60.667969 114.339844 C 64.488281 110.542969 66.644531 105.386719 66.667969 100 L 66.667969 93.332031 L 106.667969 93.332031 L 106.667969 100 C 106.6875 105.386719 108.84375 110.542969 112.667969 114.339844 C 116.269531 117.953125 121.164062 119.988281 126.265625 120 L 126.667969 120 C 135.507812 120 143.984375 123.511719 150.238281 129.761719 C 156.488281 136.015625 160 144.492188 160 153.332031 L 160 173.332031 L 126.667969 173.332031 C 115.621094 173.332031 106.667969 182.289062 106.667969 193.332031 L 20 193.332031 C 16.316406 193.332031 13.332031 190.347656 13.332031 186.667969 Z M 293.332031 200 L 126.667969 200 C 122.984375 200 120 197.015625 120 193.332031 C 120 189.652344 122.984375 186.667969 126.667969 186.667969 L 300 186.667969 C 303.683594 186.667969 306.667969 189.652344 306.667969 193.332031 C 306.667969 197.015625 303.683594 200 300 200 Z M 13.332031 213.332031 C 13.332031 209.652344 16.316406 206.667969 20 206.667969 L 111.867188 206.667969 C 115.628906 210.890625 121.011719 213.316406 126.667969 213.332031 L 127.554688 213.332031 L 132.3125 246.667969 L 20 246.667969 C 16.316406 246.667969 13.332031 243.683594 13.332031 240 Z M 13.332031 266.667969 C 13.332031 262.984375 16.316406 260 20 260 L 134.21875 260 L 139.933594 300 L 20 300 C 16.316406 300 13.332031 297.015625 13.332031 293.332031 Z M 13.332031 366.667969 L 13.332031 320 C 13.332031 316.316406 16.316406 313.332031 20 313.332031 L 141.839844 313.332031 L 151.765625 382.828125 C 151.960938 384.136719 152.289062 385.421875 152.738281 386.667969 L 33.332031 386.667969 C 22.289062 386.667969 13.332031 377.710938 13.332031 366.667969 Z M 200 386.667969 L 171.558594 386.667969 C 168.242188 386.664062 165.433594 384.222656 164.964844 380.941406 L 141.019531 213.332031 L 285.914062 213.332031 L 268 380.707031 C 267.636719 384.109375 264.757812 386.6875 261.332031 386.667969 Z M 386.667969 353.332031 C 386.644531 371.734375 371.734375 386.644531 353.332031 386.667969 L 280.148438 386.667969 C 280.6875 385.203125 281.054688 383.675781 281.238281 382.125 L 299.332031 213.332031 L 300 213.332031 C 311.046875 213.332031 320 204.378906 320 193.332031 C 320 182.289062 311.046875 173.332031 300 173.332031 L 173.332031 173.332031 L 173.332031 153.332031 C 173.371094 140.902344 168.410156 128.980469 159.574219 120.238281 C 150.679688 111.570312 138.761719 106.703125 126.339844 106.667969 C 124.71875 106.675781 123.160156 106.023438 122.027344 104.867188 C 120.730469 103.578125 120.003906 101.828125 120 100 L 120 93.332031 C 127.363281 93.332031 133.332031 87.363281 133.332031 80 L 133.332031 60 C 133.332031 48.953125 124.378906 40 113.332031 40 L 106.667969 40 L 106.667969 20 C 106.667969 16.316406 109.652344 13.332031 113.332031 13.332031 L 153.332031 13.332031 C 157.015625 13.332031 160 16.316406 160 20 L 160 73.332031 C 159.988281 94.667969 174.464844 113.285156 195.148438 118.527344 C 203.371094 120.628906 212.03125 117.308594 216.738281 110.246094 L 221.632812 102.914062 C 222.859375 101.078125 224.925781 99.984375 227.132812 100 L 266.199219 100 C 268.800781 100.117188 271.144531 101.59375 272.375 103.886719 L 276.574219 110.214844 C 281.277344 117.292969 289.9375 120.625 298.171875 118.527344 C 318.859375 113.289062 333.34375 94.671875 333.332031 73.332031 L 333.332031 20 C 333.332031 16.316406 336.316406 13.332031 340 13.332031 L 380 13.332031 C 383.683594 13.332031 386.667969 16.316406 386.667969 20 Z M 386.667969 353.332031 "/>
</g>
</svg>
