<?xml version="1.0" encoding="UTF-8"?>
<svg xmlns="http://www.w3.org/2000/svg"
    xmlns:xlink="http://www.w3.org/1999/xlink" x="0px" y="0px" viewBox="0 0 400 400" version="1.1" style="enable-background:new 0 0 400 400;" xml:space="preserve">
    <style type="text/css">
	.st0{fill:#000000;}
    </style><g id="surface1">
<path class="st0" d="M 383.402344 95.210938 L 328.125 43.957031 C 327.632812 43.5 327.0625 43.140625 326.441406 42.890625 L 275.726562 22.601562 L 275.6875 22.578125 L 257.441406 15.289062 L 257.382812 15.261719 L 257.3125 15.234375 C 257.195312 15.1875 257.070312 15.164062 256.945312 15.128906 C 256.75 15.054688 256.546875 14.996094 256.34375 14.949219 C 256.027344 14.890625 255.707031 14.855469 255.386719 14.851562 C 255.355469 14.851562 255.320312 14.851562 255.289062 14.851562 L 144.710938 14.851562 C 144.679688 14.851562 144.644531 14.851562 144.613281 14.851562 C 144.292969 14.855469 143.972656 14.890625 143.65625 14.949219 C 143.453125 14.996094 143.253906 15.054688 143.054688 15.125 C 142.933594 15.164062 142.804688 15.1875 142.6875 15.234375 L 142.617188 15.261719 L 142.558594 15.285156 L 124.3125 22.578125 L 124.273438 22.601562 L 73.5625 42.890625 C 72.941406 43.140625 72.371094 43.5 71.878906 43.957031 L 16.597656 95.207031 C 14.730469 96.933594 14.300781 99.714844 15.558594 101.921875 L 47.589844 158.171875 C 48.996094 160.640625 52.054688 161.621094 54.632812 160.429688 L 79.6875 148.867188 L 79.6875 379.6875 C 79.6875 381.136719 80.261719 382.53125 81.289062 383.554688 C 82.3125 384.582031 83.707031 385.15625 85.15625 385.15625 L 314.84375 385.15625 C 316.292969 385.15625 317.6875 384.582031 318.710938 383.554688 C 319.738281 382.53125 320.3125 381.136719 320.3125 379.6875 L 320.3125 148.867188 L 345.367188 160.429688 C 347.945312 161.621094 351.003906 160.636719 352.410156 158.167969 L 384.441406 101.917969 C 385.695312 99.710938 385.265625 96.933594 383.402344 95.210938 Z M 139.808594 28.164062 C 143.730469 58.417969 169.496094 81.0625 200 81.0625 C 230.503906 81.0625 256.269531 58.417969 260.191406 28.164062 L 267.691406 31.167969 C 262.355469 64.417969 233.667969 88.871094 199.992188 88.871094 C 166.320312 88.871094 137.632812 64.417969 132.296875 31.167969 Z M 249.523438 25.78125 C 246.738281 51.03125 225.402344 70.144531 200 70.144531 C 174.597656 70.144531 153.261719 51.03125 150.476562 25.78125 Z M 309.375 374.21875 L 90.625 374.21875 L 90.625 366.40625 L 309.375 366.40625 Z M 345.386719 148.398438 L 320.3125 136.816406 L 320.3125 116.929688 C 320.3125 113.90625 317.863281 111.460938 314.84375 111.460938 C 311.824219 111.460938 309.375 113.90625 309.375 116.929688 L 309.375 355.46875 L 90.625 355.46875 L 90.625 116.929688 C 90.625 113.90625 88.175781 111.460938 85.15625 111.460938 C 82.136719 111.460938 79.6875 113.90625 79.6875 116.929688 L 79.6875 136.816406 L 54.613281 148.398438 L 27.210938 100.28125 L 78.570312 52.667969 L 121.933594 35.3125 C 129.128906 72.746094 161.878906 99.804688 200 99.804688 C 238.121094 99.804688 270.871094 72.746094 278.066406 35.3125 L 321.429688 52.664062 L 372.789062 100.28125 Z M 345.386719 148.398438 "/>
<path class="st0" d="M 296.09375 279.429688 C 294.644531 279.425781 293.25 280.003906 292.226562 281.027344 C 291.199219 282.054688 290.625 283.445312 290.625 284.898438 L 290.625 309.898438 C 290.625 312.917969 293.074219 315.367188 296.09375 315.367188 C 299.113281 315.367188 301.5625 312.917969 301.5625 309.898438 L 301.5625 284.898438 C 301.5625 283.445312 300.988281 282.054688 299.960938 281.027344 C 298.9375 280.003906 297.542969 279.425781 296.09375 279.429688 Z M 296.09375 279.429688 "/>
</g>
</svg>
