<?xml version="1.0" encoding="UTF-8"?>
<svg xmlns="http://www.w3.org/2000/svg"
    xmlns:xlink="http://www.w3.org/1999/xlink" x="0px" y="0px" viewBox="0 0 400 400" version="1.1" style="enable-background:new 0 0 400 400;" xml:space="preserve">
    <style type="text/css">
	.st0{fill:#000000;}
    </style>
    <g id="surface1">
        <path class="st0" d="M 98.359375 121.488281 C 95.417969 120.742188 93.355469 118.105469 93.332031 115.074219 L 93.332031 6.667969 C 93.332031 2.984375 90.347656 0 86.667969 0 L 46.667969 0 C 42.984375 0 40 2.984375 40 6.667969 L 40 115.074219 C 39.976562 118.109375 37.90625 120.742188 34.96875 121.488281 C 14.378906 126.820312 -0.00390625 145.398438 0 166.667969 L 0 393.332031 C 0 397.015625 2.984375 400 6.667969 400 L 126.667969 400 C 130.347656 400 133.332031 397.015625 133.332031 393.332031 L 133.332031 166.667969 C 133.332031 145.398438 118.953125 126.816406 98.359375 121.488281 Z M 53.332031 13.332031 L 80 13.332031 L 80 26.667969 L 53.332031 26.667969 Z M 120 313.332031 L 13.332031 313.332031 L 13.332031 220 L 120 220 Z M 13.332031 386.667969 L 13.332031 326.667969 L 120 326.667969 L 120 386.667969 Z M 120 206.667969 L 13.332031 206.667969 L 13.332031 166.667969 C 13.328125 151.472656 23.597656 138.195312 38.308594 134.386719 C 47.128906 132.121094 53.308594 124.183594 53.332031 115.074219 L 53.332031 40 L 80 40 L 80 115.074219 C 80.015625 124.1875 86.195312 132.140625 95.019531 134.40625 C 109.722656 138.214844 119.996094 151.476562 120 166.667969 Z M 120 206.667969 "/>
        <path class="st0" d="M 241.859375 149.074219 C 231.921875 133.179688 226.660156 114.816406 226.667969 96.074219 L 226.667969 6.667969 C 226.667969 2.984375 223.679688 0 220 0 L 180 0 C 176.316406 0 173.332031 2.984375 173.332031 6.667969 L 173.332031 96.074219 C 173.339844 114.808594 168.082031 133.167969 158.152344 149.054688 L 157.226562 150.519531 C 145.964844 168.53125 139.992188 189.347656 140 210.59375 L 140 393.332031 C 140 397.015625 142.984375 400 146.667969 400 L 253.332031 400 C 257.015625 400 260 397.015625 260 393.332031 L 260 210.59375 C 260.003906 189.34375 254.03125 168.519531 242.761719 150.5 Z M 186.667969 13.332031 L 213.332031 13.332031 L 213.332031 26.667969 L 186.667969 26.667969 Z M 246.667969 386.667969 L 153.332031 386.667969 L 153.332031 210.59375 C 153.328125 191.859375 158.582031 173.5 168.511719 157.613281 L 169.441406 156.144531 C 180.703125 138.136719 186.671875 117.316406 186.667969 96.074219 L 186.667969 40 L 213.332031 40 L 213.332031 96.074219 C 213.328125 117.324219 219.304688 138.148438 230.574219 156.164062 L 231.472656 157.59375 C 241.410156 173.488281 246.671875 191.851562 246.667969 210.59375 Z M 246.667969 386.667969 "/>
        <path class="st0" d="M 200 233.332031 C 181.589844 233.332031 166.667969 248.257812 166.667969 266.667969 C 166.667969 285.074219 181.589844 300 200 300 C 218.40625 300 233.332031 285.074219 233.332031 266.667969 C 233.308594 248.265625 218.402344 233.355469 200 233.332031 Z M 200 286.667969 C 188.953125 286.667969 180 277.710938 180 266.667969 C 180 255.621094 188.953125 246.667969 200 246.667969 C 211.042969 246.667969 220 255.621094 220 266.667969 C 220 277.710938 211.042969 286.667969 200 286.667969 Z M 200 286.667969 "/>
        <path class="st0" d="M 361.40625 64.035156 L 361.335938 64 C 360.496094 63.410156 360 62.453125 360 61.433594 L 360 6.667969 C 360 2.984375 357.015625 0 353.332031 0 L 313.332031 0 C 309.652344 0 306.667969 2.984375 306.667969 6.667969 L 306.667969 61.417969 C 306.667969 62.441406 306.167969 63.398438 305.332031 63.988281 L 305.253906 64.035156 C 281.121094 80.089844 266.628906 107.160156 266.667969 136.144531 L 266.667969 393.332031 C 266.667969 397.015625 269.652344 400 273.332031 400 L 393.332031 400 C 397.015625 400 400 397.015625 400 393.332031 L 400 136.144531 C 400.03125 107.160156 385.542969 80.085938 361.40625 64.035156 Z M 320 13.332031 L 346.667969 13.332031 L 346.667969 26.667969 L 320 26.667969 Z M 386.667969 386.667969 L 280 386.667969 L 280 136.144531 C 279.96875 111.667969 292.183594 88.796875 312.546875 75.207031 L 312.664062 75.128906 C 317.253906 72.074219 320.003906 66.925781 320 61.417969 L 320 40 L 346.667969 40 L 346.667969 61.417969 C 346.664062 66.925781 349.414062 72.074219 354 75.128906 L 354.121094 75.199219 C 374.480469 88.796875 386.691406 111.667969 386.667969 136.144531 Z M 386.667969 386.667969 "/>
        <path class="st0" d="M 300 173.332031 C 296.316406 173.332031 293.332031 176.320312 293.332031 180 L 293.332031 353.332031 C 293.332031 357.015625 296.316406 360 300 360 L 366.667969 360 C 370.347656 360 373.332031 357.015625 373.332031 353.332031 L 373.332031 180 C 373.332031 176.320312 370.347656 173.332031 366.667969 173.332031 Z M 360 346.667969 L 306.667969 346.667969 L 306.667969 186.667969 L 360 186.667969 Z M 360 346.667969 "/>
    </g>
</svg>
