<?xml version="1.0" encoding="utf-8"?>
<!-- Generator: Adobe Illustrator 26.2.1, SVG Export Plug-In . SVG Version: 6.00 Build 0)  -->
<svg version="1.1" id="Calque_1" xmlns="http://www.w3.org/2000/svg" xmlns:xlink="http://www.w3.org/1999/xlink" x="0px" y="0px"
	 viewBox="0 0 400 400" style="enable-background:new 0 0 400 400;" xml:space="preserve">
<style type="text/css">
	.st0{fill:#FFFFFF;stroke:#1C7368;stroke-width:3;stroke-miterlimit:10;}
</style>
<g id="Calque_2_00000039102063536355061300000012314203586885884566_">
	<g>
		<path class="st0" d="M199.2,12C111.8,12,40.9,82.9,40.9,170.3c0,44.9,18.7,85.5,48.8,114.4l93.5,97.6l0.5,0.5
			c8.8,8.5,22.6,8.3,31.1-0.5l93.9-97.6c30.1-28.8,48.8-69.5,48.8-114.4C357.5,82.9,286.6,12,199.2,12z M200.8,247.1h-1.6
			c-45,0-81.6-36.6-81.6-81.6s36.6-81.6,81.6-81.6h1.6c45,0,81.6,36.6,81.6,81.6C282.3,210.5,245.8,247.1,200.8,247.1z"/>
	</g>
</g>
</svg>
